{"glyphs":{"0":{"ha":724,"x_min":109,"x_max":793,"o":"m 444 160 q 510 195 473 160 q 579 283 546 228 l 514 283 q 593 488 568 371 q 608 616 608 557 q 606 655 608 636 l 583 655 l 583 664 q 547 780 574 739 q 496 816 524 816 q 431 781 469 816 q 341 655 387 739 l 363 655 q 305 488 325 582 q 290 359 290 418 q 297 283 290 318 l 363 283 q 393 194 372 228 q 444 160 415 160 m 319 -19 q 133 104 195 -19 l 220 104 q 175 283 180 180 l 110 283 q 109 326 109 304 q 127 488 109 402 q 179 655 146 576 l 157 655 q 281 856 206 770 l 347 856 q 600 994 468 994 q 793 856 731 994 l 728 856 q 766 655 766 770 l 789 655 l 789 650 q 770 488 789 573 q 701 283 747 378 l 766 283 q 646 104 716 180 l 558 104 q 319 -19 443 -19 z "},"1":{"ha":427,"x_min":131,"x_max":624,"o":"m 346 -11 l 165 -11 l 190 104 l 277 104 l 315 282 l 249 282 l 323 631 q 191 580 264 598 l 134 565 l 153 654 l 131 654 l 152 751 l 175 758 q 273 808 235 777 q 320 855 301 831 l 385 855 q 398 873 393 864 q 428 933 420 908 q 446 991 436 958 q 624 991 475 991 l 595 855 l 530 855 l 487 654 l 509 654 l 429 282 l 495 282 l 458 104 l 370 104 l 346 -11 z "},"2":{"ha":724,"x_min":-3,"x_max":827,"o":"m 637 -11 l -3 -11 q 22 104 18 91 l 110 104 q 236 282 137 191 l 171 282 q 425 468 233 344 q 577 576 544 544 q 616 633 612 613 l 620 654 l 598 654 q 602 696 602 677 q 509 810 602 810 q 420 788 460 810 q 358 729 381 767 q 311 654 334 691 l 286 654 l 155 712 l 206 795 q 252 855 227 827 l 317 855 q 420 937 362 905 q 612 987 509 987 q 827 855 774 987 l 761 855 q 784 732 784 800 q 777 654 784 695 l 799 654 l 795 633 q 694 466 778 551 q 610 397 660 432 q 502 325 561 363 q 436 282 469 304 l 502 282 q 349 168 396 212 l 762 168 l 748 104 l 661 104 l 637 -11 z "},"3":{"ha":724,"x_min":81,"x_max":794,"o":"m 296 -19 q 138 34 201 -19 q 81 104 103 62 l 169 104 q 141 180 151 138 q 123 263 132 222 l 174 283 l 109 283 l 237 333 l 247 283 l 313 283 l 319 251 q 422 160 338 160 q 538 203 486 160 q 597 283 581 238 l 532 283 q 543 340 543 311 q 513 420 543 382 q 420 458 483 458 l 331 458 l 369 636 l 458 636 q 525 655 494 636 l 503 655 l 505 656 q 558 726 549 682 q 560 743 560 734 q 539 792 560 768 q 474 816 518 816 q 415 801 444 816 q 368 762 387 786 l 310 683 l 170 766 q 238 856 232 850 l 303 856 q 421 954 353 918 q 578 994 498 994 q 710 958 654 994 q 791 861 766 922 l 794 856 l 728 856 q 743 780 743 820 q 711 655 743 717 l 733 655 q 656 555 707 601 q 725 378 725 481 q 711 283 725 328 l 777 283 q 667 104 748 182 l 579 104 q 472 26 532 58 q 296 -19 387 -19 z "},"4":{"ha":724,"x_min":69,"x_max":785,"o":"m 440 399 l 491 640 l 288 399 l 440 399 m 509 -11 l 331 -11 l 355 104 l 443 104 l 468 221 l 122 221 l 135 282 l 69 282 l 100 427 l 293 654 l 271 654 l 441 855 l 507 855 l 610 977 l 785 977 l 759 855 l 694 855 l 651 654 l 673 654 l 618 399 l 734 399 l 709 282 l 774 282 l 762 221 l 646 221 l 621 104 l 534 104 l 509 -11 z "},"5":{"ha":724,"x_min":50,"x_max":841,"o":"m 190 282 l 186 282 l 189 284 l 190 282 m 300 -20 q 50 104 143 -20 l 138 104 q 95 168 124 121 l 252 282 l 256 282 q 280 243 268 262 q 311 205 292 224 q 357 172 330 185 q 425 159 385 159 q 535 200 486 159 q 592 282 577 235 l 527 282 q 547 371 530 291 q 550 401 550 387 q 521 477 550 441 q 431 513 492 513 q 261 456 341 513 l 243 456 q 127 519 236 458 l 173 654 l 151 654 l 218 855 l 284 855 l 327 981 l 841 981 l 814 855 l 748 855 l 737 802 l 380 802 l 338 678 q 448 692 393 692 q 592 654 530 692 l 614 654 l 616 653 q 715 533 684 613 q 732 439 732 488 q 725 371 732 406 q 705 282 708 292 l 771 282 q 665 104 745 182 l 578 104 q 471 24 530 56 q 300 -20 388 -20 z "},"6":{"ha":724,"x_min":98,"x_max":827,"o":"m 455 160 q 545 201 503 160 q 597 283 582 237 l 532 283 q 543 349 543 317 q 525 416 543 387 q 452 458 500 458 q 360 416 404 458 q 299 309 313 371 q 296 283 296 296 l 361 283 l 361 271 q 362 253 361 262 q 455 160 393 160 m 329 -19 q 129 104 197 -19 l 216 104 q 165 283 173 180 l 100 283 q 98 330 98 306 q 115 488 98 405 q 169 655 134 576 l 147 655 q 277 856 198 770 l 343 856 q 610 994 470 994 q 809 907 736 994 l 827 885 l 792 856 l 727 856 l 610 759 l 592 780 q 507 816 562 816 q 427 779 469 816 q 333 655 370 730 l 355 655 q 326 585 339 625 q 361 608 343 599 q 490 636 425 636 q 630 591 572 636 q 711 472 688 547 q 724 385 724 431 q 716 309 724 348 q 709 283 713 295 l 775 283 q 673 104 747 182 l 586 104 q 490 26 543 58 q 329 -19 411 -19 z "},"7":{"ha":724,"x_min":123,"x_max":922,"o":"m 300 -11 l 123 -11 l 130 20 q 157 104 138 58 l 245 104 q 342 282 275 174 l 277 282 q 332 364 303 323 q 547 654 428 504 l 524 654 q 642 798 579 724 l 642 799 l 179 799 l 191 855 l 257 855 l 283 977 l 922 977 l 897 855 l 831 855 l 808 747 q 731 654 761 691 l 753 654 q 472 282 581 444 l 537 282 q 427 104 461 170 l 340 104 q 307 20 315 54 l 300 -11 z "},"8":{"ha":724,"x_min":68,"x_max":797,"o":"m 465 636 q 529 655 500 636 l 507 655 l 509 656 q 562 745 562 688 q 543 792 562 769 q 481 816 524 816 q 406 789 440 816 q 361 708 361 754 q 387 655 361 676 l 409 655 q 465 636 431 636 m 429 160 q 541 203 490 160 q 599 283 583 238 l 534 283 q 545 342 545 316 q 516 420 545 383 q 427 458 488 458 q 315 414 366 458 q 250 309 263 371 q 248 287 248 297 l 248 283 l 313 283 l 313 275 q 336 203 313 235 q 429 160 369 160 m 304 -19 q 151 26 215 -19 q 79 104 105 58 l 166 104 q 130 237 130 164 q 134 283 130 259 l 68 283 l 73 309 q 143 463 90 392 q 235 555 183 516 q 202 655 205 601 l 180 655 q 180 673 180 664 q 248 856 180 770 l 313 856 l 318 861 q 438 957 368 921 q 585 994 509 994 q 715 958 660 994 q 797 856 773 919 l 731 856 q 745 781 745 821 q 713 655 745 715 l 735 655 q 660 555 709 601 q 713 463 696 516 q 726 378 726 422 q 712 283 726 328 l 778 283 q 669 104 749 182 l 582 104 q 476 26 534 58 q 304 -19 393 -19 z "},"9":{"ha":724,"x_min":87,"x_max":795,"o":"m 440 517 q 532 558 488 517 q 590 655 576 600 l 568 655 q 575 700 575 678 q 574 722 575 711 q 534 792 559 767 q 481 815 511 815 q 391 774 434 815 q 330 655 344 728 l 352 655 q 350 627 350 640 q 371 552 350 588 q 440 517 393 517 m 304 -19 q 105 68 178 -19 l 87 90 l 104 104 l 192 104 l 326 216 l 345 195 q 430 159 374 159 q 509 195 468 159 q 583 283 548 229 l 517 283 q 568 391 546 330 q 531 368 550 376 q 402 339 467 339 q 262 384 320 339 q 180 503 204 428 q 168 588 168 543 q 174 655 168 621 l 153 655 q 250 856 174 768 l 315 856 q 425 948 363 911 q 585 994 503 994 q 794 856 726 994 l 728 856 q 773 655 771 770 l 795 655 l 795 644 q 778 488 795 570 q 707 283 754 377 l 772 283 q 645 104 720 180 l 558 104 q 304 -19 436 -19 z "},"\u0000":{"ha":724,"x_min":-60,"x_max":969,"o":"m -60 -11 l -36 104 l 51 104 l 88 282 l 23 282 l 102 654 l 81 654 l 123 855 l 189 855 l 214 977 l 969 977 l 943 855 l 878 855 l 835 654 l 857 654 l 777 282 l 843 282 l 806 104 l 718 104 l 694 -11 l -60 -11 z "},"\u001d":{"ha":724,"x_min":-60,"x_max":969,"o":"m -60 -11 l -36 104 l 51 104 l 88 282 l 23 282 l 102 654 l 81 654 l 123 855 l 189 855 l 214 977 l 969 977 l 943 855 l 878 855 l 835 654 l 857 654 l 777 282 l 843 282 l 806 104 l 718 104 l 694 -11 l -60 -11 z "}," ":{"ha":483,"x_min":0,"x_max":0,"o":""}," ":{"ha":483,"x_min":0,"x_max":0,"o":""},"a":{"ha":845,"x_min":-55,"x_max":920,"o":"m 617 399 l 575 654 l 553 654 l 547 692 l 526 654 l 547 654 l 397 399 l 617 399 m 851 -11 l 662 -11 l 643 104 l 730 104 l 711 220 l 358 220 l 290 104 l 203 104 l 136 -11 l -55 -11 l 12 104 l 100 104 l 204 282 l 138 282 l 357 654 l 335 654 l 453 855 l 519 855 l 590 977 l 757 977 l 777 855 l 711 855 l 744 654 l 766 654 l 825 282 l 891 282 l 920 104 l 833 104 l 851 -11 z "},"b":{"ha":845,"x_min":-1,"x_max":904,"o":"m 551 572 q 639 606 598 572 q 677 654 665 627 l 655 654 q 669 711 669 680 q 647 770 669 742 q 578 799 625 799 l 349 799 l 319 654 l 340 654 l 323 572 l 551 572 m 589 168 q 676 201 636 168 q 726 282 715 234 l 660 282 q 663 307 663 295 q 640 366 663 338 q 571 394 618 394 l 285 394 l 261 282 l 327 282 l 303 168 l 589 168 m 464 -11 l -1 -11 l 24 104 l 111 104 l 149 282 l 83 282 l 162 654 l 140 654 l 183 855 l 248 855 l 274 977 l 681 977 q 820 937 762 977 q 892 855 867 905 l 826 855 l 827 853 q 852 749 852 806 q 837 654 852 704 l 859 654 q 773 513 834 576 q 829 428 810 478 q 845 344 845 389 q 838 282 845 314 l 904 282 q 806 104 883 182 l 719 104 q 618 29 674 58 q 464 -11 544 -11 z "},"c":{"ha":845,"x_min":89,"x_max":972,"o":"m 418 -25 q 149 104 246 -22 l 237 104 q 160 282 178 179 l 95 282 q 89 361 89 321 q 165 654 89 511 l 142 654 q 303 855 203 770 l 369 855 q 699 989 522 986 q 972 855 872 987 l 906 855 l 930 822 l 772 703 l 756 726 q 596 811 697 810 q 454 768 523 810 q 335 654 386 726 l 357 654 q 280 482 300 574 q 271 397 271 438 q 293 282 271 335 l 359 282 q 420 197 380 230 q 545 153 471 155 q 741 239 646 154 l 767 262 l 876 144 l 829 104 l 741 104 q 418 -25 589 -22 z "},"d":{"ha":845,"x_min":17,"x_max":911,"o":"m 461 165 q 685 282 581 165 l 619 282 q 720 482 696 368 q 730 564 730 526 q 715 654 730 613 l 693 654 q 627 758 673 718 q 508 799 578 799 l 366 799 l 336 654 l 357 654 l 278 282 l 344 282 l 319 165 l 461 165 m 336 -11 l 17 -11 l 41 104 l 129 104 l 166 282 l 100 282 l 180 654 l 158 654 l 201 855 l 267 855 l 292 977 l 612 977 q 872 855 776 977 l 807 855 q 886 654 873 770 l 908 654 q 911 598 911 627 q 899 482 911 542 q 819 282 876 375 l 884 282 q 727 104 822 178 l 640 104 q 336 -11 495 -11 z "},"e":{"ha":845,"x_min":-1,"x_max":1029,"o":"m 753 -11 l -1 -11 l 23 104 l 111 104 l 148 282 l 82 282 l 161 654 l 140 654 l 182 855 l 248 855 l 273 977 l 1029 977 l 1003 855 l 937 855 l 925 798 l 348 798 l 317 654 l 339 654 l 321 572 l 784 572 l 746 394 l 283 394 l 260 282 l 326 282 l 301 167 l 878 167 l 865 104 l 778 104 l 753 -11 z "},"f":{"ha":785,"x_min":8,"x_max":981,"o":"m 185 -11 l 8 -11 l 33 104 l 119 104 l 157 282 l 92 282 l 172 654 l 150 654 l 192 855 l 257 855 l 283 977 l 981 977 l 955 855 l 889 855 l 878 799 l 357 799 l 327 654 l 349 654 l 332 572 l 732 572 l 694 394 l 294 394 l 270 282 l 335 282 l 297 104 l 210 104 l 185 -11 z "},"g":{"ha":905,"x_min":90,"x_max":998,"o":"m 394 -24 q 136 104 224 -24 l 223 104 q 159 282 171 178 l 94 282 q 90 340 90 310 q 106 482 90 407 q 165 654 126 574 l 143 654 q 291 855 199 771 l 356 855 q 675 989 500 989 q 848 966 778 989 q 962 895 918 944 l 998 855 l 932 855 l 949 835 l 802 703 l 749 763 q 721 785 739 774 q 668 803 703 795 q 572 811 633 811 q 443 771 504 811 q 332 655 380 729 l 332 654 l 353 654 q 285 482 305 579 q 273 380 273 427 q 288 282 273 326 l 353 282 q 408 194 371 227 q 519 153 452 153 q 706 212 631 153 q 769 282 745 241 l 703 282 q 731 349 721 313 l 741 395 l 477 395 l 515 572 l 957 572 l 895 282 l 961 282 l 923 104 l 836 104 l 811 -10 l 633 -10 l 643 37 q 394 -24 529 -24 z "},"h":{"ha":845,"x_min":-1,"x_max":1029,"o":"m 754 -11 l 576 -11 l 601 104 l 688 104 l 725 282 l 660 282 l 684 394 l 284 394 l 260 282 l 326 282 l 289 104 l 201 104 l 177 -11 l -1 -11 l 23 104 l 111 104 l 148 282 l 82 282 l 161 654 l 140 654 l 182 855 l 248 855 l 274 977 l 452 977 l 427 855 l 361 855 l 318 654 l 340 654 l 322 572 l 722 572 l 739 654 l 718 654 l 760 855 l 825 855 l 851 977 l 1029 977 l 1003 855 l 938 855 l 895 654 l 917 654 l 838 282 l 903 282 l 865 104 l 779 104 l 754 -11 z "},"i":{"ha":362,"x_min":46,"x_max":499,"o":"m 224 -11 l 46 -11 l 71 104 l 158 104 l 196 282 l 130 282 l 210 654 l 188 654 l 231 855 l 296 855 l 321 977 l 499 977 l 473 855 l 408 855 l 366 654 l 387 654 l 308 282 l 374 282 l 336 104 l 248 104 l 224 -11 z "},"j":{"ha":604,"x_min":-1,"x_max":779,"o":"m 196 -24 q 60 23 119 -24 q -1 104 20 56 l 87 104 q 63 176 76 125 l 240 250 l 248 222 q 276 172 256 191 q 320 154 297 154 q 425 188 389 154 q 475 282 457 218 l 409 282 q 489 654 412 292 l 467 654 l 498 800 l 321 800 l 332 855 l 398 855 l 424 977 l 779 977 l 753 855 l 688 855 l 645 654 l 667 654 q 588 288 591 296 l 587 282 l 652 282 q 564 104 625 176 l 477 104 q 438 64 459 83 q 196 -24 337 -24 z "},"k":{"ha":845,"x_min":-12,"x_max":1088,"o":"m 793 -11 l 567 -11 l 503 104 l 590 104 l 488 282 l 422 282 l 353 406 l 261 330 l 250 282 l 316 282 l 279 104 l 191 104 l 167 -11 l -12 -11 l 13 104 l 100 104 l 138 282 l 73 282 l 152 654 l 130 654 l 172 855 l 238 855 l 264 977 l 442 977 l 416 855 l 351 855 l 308 654 l 330 654 l 315 583 l 401 654 l 380 654 l 623 855 l 688 855 l 836 977 l 1088 977 l 941 855 l 875 855 l 631 654 l 653 654 l 507 533 l 648 282 l 714 282 l 816 104 l 728 104 l 793 -11 z "},"l":{"ha":724,"x_min":-4,"x_max":762,"o":"m 636 -11 l -4 -11 l 20 104 l 108 104 l 146 282 l 80 282 l 159 654 l 138 654 l 180 855 l 246 855 l 272 977 l 450 977 l 425 855 l 359 855 l 316 654 l 338 654 l 258 282 l 324 282 l 300 167 l 762 167 l 748 104 l 661 104 l 636 -11 z "},"m":{"ha":966,"x_min":1,"x_max":1148,"o":"m 779 282 l 816 454 l 715 282 l 779 282 m 585 274 l 590 282 l 584 282 l 585 274 m 328 282 l 301 454 l 264 282 l 328 282 m 872 -11 l 694 -11 l 719 104 l 806 104 l 844 282 l 781 282 l 675 104 l 588 104 l 521 -11 l 354 -11 l 336 104 l 423 104 l 394 282 l 330 282 l 292 104 l 204 104 l 180 -11 l 1 -11 l 26 104 l 113 104 l 151 282 l 86 282 l 165 654 l 143 654 l 185 855 l 251 855 l 277 977 l 450 977 l 469 855 l 404 855 l 437 654 l 458 654 l 518 282 l 524 282 l 743 654 l 721 654 l 838 855 l 904 855 l 977 977 l 1148 977 l 1122 855 l 1056 855 l 1014 654 l 1036 654 l 957 282 l 1022 282 l 984 104 l 897 104 l 872 -11 z "},"n":{"ha":845,"x_min":0,"x_max":1030,"o":"m 755 -11 l 581 -11 l 534 104 l 621 104 l 547 282 l 481 282 l 336 635 l 261 282 l 327 282 l 290 104 l 202 104 l 178 -11 l 0 -11 l 24 104 l 112 104 l 149 282 l 83 282 l 163 654 l 141 654 l 184 855 l 250 855 l 275 977 l 449 977 l 499 855 l 434 855 l 516 654 l 538 654 l 672 331 l 741 654 l 718 654 l 761 855 l 827 855 l 852 977 l 1030 977 l 1004 855 l 939 855 l 896 654 l 918 654 l 838 282 l 904 282 l 867 104 l 779 104 l 755 -11 z "},"o":{"ha":966,"x_min":112,"x_max":1030,"o":"m 567 155 q 708 198 640 155 q 804 282 761 231 l 739 282 q 838 484 814 370 q 848 568 848 528 q 836 654 848 614 l 814 654 q 742 768 792 726 q 619 811 692 811 q 477 768 546 811 q 357 654 409 726 l 379 654 l 375 650 q 303 484 323 575 q 294 399 294 439 q 317 282 294 336 l 382 282 q 444 198 404 231 q 567 155 493 155 m 441 -22 q 174 104 273 -22 l 262 104 q 184 282 202 180 l 119 282 q 112 362 112 321 q 125 484 112 420 q 188 654 144 574 l 165 654 q 326 855 227 770 l 392 855 q 722 989 548 989 q 996 855 897 989 l 931 855 q 1006 654 994 770 l 1027 654 q 1030 605 1030 630 q 1017 484 1030 547 q 938 282 994 376 l 1003 282 q 850 104 943 180 l 763 104 q 441 -22 610 -22 z "},"p":{"ha":845,"x_min":33,"x_max":983,"o":"m 643 572 q 730 606 690 572 q 769 654 756 627 l 747 654 q 762 710 762 682 q 739 770 762 741 q 669 799 716 799 l 383 799 l 353 654 l 374 654 l 357 572 l 643 572 m 211 -11 l 33 -11 l 57 104 l 144 104 l 182 282 l 117 282 l 196 654 l 174 654 l 217 855 l 283 855 l 309 977 l 773 977 q 911 937 853 977 q 983 855 958 905 l 918 855 l 918 853 q 944 748 944 806 q 928 654 944 698 l 950 654 q 888 538 930 592 q 760 433 834 473 q 605 394 685 394 l 319 394 l 295 282 l 361 282 l 323 104 l 235 104 l 211 -11 z "},"q":{"ha":966,"x_min":100,"x_max":1018,"o":"m 555 155 q 674 186 616 155 l 599 282 l 533 282 l 512 310 l 665 436 l 755 319 q 836 567 836 435 q 823 654 836 624 l 802 654 q 730 768 780 726 q 606 811 680 811 q 465 768 534 811 q 345 654 397 726 l 367 654 l 364 650 q 292 484 311 575 q 282 399 282 439 q 305 282 282 336 l 370 282 q 432 198 392 231 q 555 155 482 155 m 770 -48 l 688 58 q 429 -22 560 -22 q 162 104 261 -22 l 250 104 q 172 282 189 180 l 106 282 q 100 362 100 321 q 113 484 100 420 q 175 654 132 574 l 153 654 q 313 855 214 770 l 379 855 q 710 989 535 989 q 984 855 885 989 l 918 855 q 994 654 981 770 l 1015 654 q 1018 602 1018 629 q 1005 484 1018 545 q 925 282 982 377 l 990 282 q 924 189 961 233 l 991 104 l 904 104 l 923 79 l 770 -48 z "},"r":{"ha":845,"x_min":25,"x_max":975,"o":"m 635 572 q 722 606 682 572 q 761 654 748 627 l 739 654 q 753 711 753 682 q 731 771 753 743 q 661 800 709 800 l 375 800 l 345 654 l 366 654 l 349 572 l 635 572 m 203 -11 l 25 -11 l 50 104 l 137 104 l 175 282 l 109 282 l 189 654 l 167 654 l 210 855 l 275 855 l 300 977 l 764 977 q 903 938 844 977 q 975 855 950 905 l 909 855 l 910 853 q 935 749 935 806 q 920 654 935 700 l 942 654 q 880 539 922 592 q 752 434 826 473 q 616 395 686 399 l 676 282 l 742 282 l 838 104 l 751 104 l 812 -10 l 589 -10 l 528 104 l 615 104 l 519 282 l 454 282 l 394 395 l 311 395 l 287 282 l 353 282 l 315 104 l 227 104 l 203 -11 z "},"s":{"ha":845,"x_min":85,"x_max":951,"o":"m 375 -22 q 172 26 256 -22 q 85 104 117 58 l 172 104 q 143 161 153 130 l 119 241 l 206 282 l 140 282 l 228 323 l 241 282 l 307 282 l 319 245 q 379 182 331 206 q 500 155 431 155 q 612 174 559 155 q 698 221 665 193 q 734 282 732 250 l 669 282 l 669 290 q 655 328 669 310 q 589 376 634 357 q 486 394 545 394 q 301 432 380 394 q 183 537 222 471 q 157 640 157 585 l 157 654 l 135 654 q 140 692 136 673 q 227 846 158 777 l 237 855 l 303 855 q 455 951 366 915 q 656 989 551 989 q 859 941 774 989 q 951 855 919 907 l 886 855 q 909 805 900 831 l 933 726 l 783 654 l 805 654 l 780 642 l 777 654 l 755 654 l 734 722 q 671 785 721 760 q 553 811 621 811 q 440 792 493 811 q 354 745 388 774 q 317 679 317 714 q 322 654 317 666 l 344 654 q 419 591 360 616 q 524 572 464 572 q 708 534 629 572 q 825 429 787 495 q 852 327 852 382 q 848 282 852 305 l 913 282 q 825 120 897 193 q 806 104 816 111 l 719 104 q 575 16 658 49 q 375 -22 480 -22 z "},"t":{"ha":845,"x_min":181,"x_max":1040,"o":"m 475 -11 l 297 -11 l 321 104 l 409 104 l 447 282 l 381 282 l 460 654 l 439 654 l 469 799 l 181 799 l 193 855 l 259 855 l 285 977 l 1040 977 l 1014 855 l 948 855 l 936 799 l 648 799 l 617 654 l 639 654 l 559 282 l 625 282 l 587 104 l 500 104 l 475 -11 z "},"u":{"ha":845,"x_min":94,"x_max":1031,"o":"m 376 -22 q 190 26 265 -22 q 114 104 142 58 l 201 104 q 158 264 158 172 l 159 283 l 94 283 q 104 365 95 322 l 165 655 l 144 655 l 186 856 l 252 856 l 277 978 l 455 978 l 429 856 l 363 856 l 321 655 l 343 655 l 281 365 q 275 302 275 331 q 275 283 275 292 l 341 283 q 367 210 344 240 q 502 156 406 156 q 660 210 597 156 q 717 283 694 240 l 651 283 q 679 365 669 319 l 741 655 l 719 655 l 762 856 l 827 856 l 853 978 l 1031 978 l 1006 856 l 940 856 l 897 655 l 919 655 l 857 365 q 833 283 848 322 l 899 283 q 781 104 859 179 l 693 104 q 583 26 644 58 q 376 -22 488 -22 z "},"v":{"ha":845,"x_min":140,"x_max":1093,"o":"m 447 -11 l 280 -11 l 262 104 l 349 104 l 320 282 l 254 282 l 195 654 l 173 654 l 140 855 l 205 855 l 186 977 l 376 977 l 395 855 l 330 855 l 363 654 l 385 654 l 445 282 l 451 282 l 669 654 l 648 654 l 764 855 l 830 855 l 902 977 l 1093 977 l 1021 855 l 955 855 l 838 654 l 859 654 l 641 282 l 707 282 l 602 104 l 514 104 l 447 -11 z "},"w":{"ha":1086,"x_min":146,"x_max":1272,"o":"m 853 -11 l 684 -11 l 675 104 l 763 104 l 749 282 l 684 282 l 657 626 l 484 282 l 549 282 l 460 104 l 372 104 l 315 -11 l 146 -11 l 154 104 l 241 104 l 253 282 l 188 282 l 213 654 l 191 654 l 204 855 l 269 855 l 278 977 l 458 977 l 450 855 l 384 855 l 371 654 l 393 654 l 378 441 l 486 654 l 464 654 l 564 855 l 630 855 l 692 977 l 859 977 l 868 855 l 802 855 l 819 654 l 840 654 l 857 441 l 933 654 l 911 654 l 983 855 l 1048 855 l 1092 977 l 1272 977 l 1227 855 l 1162 855 l 1091 654 l 1113 654 l 980 282 l 1045 282 l 981 104 l 894 104 l 853 -11 z "},"x":{"ha":845,"x_min":-94,"x_max":1143,"o":"m 868 -11 l 646 -11 l 585 104 l 672 104 l 576 282 l 511 282 l 483 335 l 432 282 l 498 282 l 326 104 l 239 104 l 129 -11 l -94 -11 l 16 104 l 104 104 l 275 282 l 210 282 l 403 483 l 311 654 l 290 654 l 182 855 l 248 855 l 182 977 l 404 977 l 470 855 l 405 855 l 512 654 l 534 654 l 546 631 l 568 654 l 546 654 l 739 855 l 804 855 l 922 977 l 1143 977 l 1027 855 l 961 855 l 768 654 l 790 654 l 625 483 l 733 282 l 798 282 l 895 104 l 807 104 l 868 -11 z "},"y":{"ha":845,"x_min":149,"x_max":1112,"o":"m 444 -11 l 266 -11 l 290 104 l 378 104 l 416 282 l 351 282 l 387 454 l 279 654 l 257 654 l 149 855 l 214 855 l 149 977 l 372 977 l 437 855 l 372 855 l 479 654 l 502 654 l 513 631 l 536 654 l 513 654 l 706 855 l 771 855 l 889 977 l 1112 977 l 994 855 l 928 855 l 736 654 l 758 654 l 565 454 l 528 282 l 593 282 l 555 104 l 468 104 l 444 -11 z "},"z":{"ha":845,"x_min":-2,"x_max":1029,"o":"m 753 -11 l -2 -11 l 22 104 l 110 104 l 126 178 l 237 282 l 171 282 l 568 654 l 547 654 l 701 799 l 170 799 l 182 855 l 248 855 l 274 977 l 1029 977 l 1003 855 l 937 855 l 923 787 l 781 654 l 803 654 l 405 282 l 471 282 l 348 168 l 878 168 l 865 104 l 777 104 l 753 -11 z "},"A":{"ha":845,"x_min":-55,"x_max":920,"o":"m 617 399 l 575 654 l 553 654 l 547 692 l 526 654 l 547 654 l 397 399 l 617 399 m 851 -11 l 662 -11 l 643 104 l 730 104 l 711 220 l 358 220 l 290 104 l 203 104 l 136 -11 l -55 -11 l 12 104 l 100 104 l 204 282 l 138 282 l 357 654 l 335 654 l 453 855 l 519 855 l 590 977 l 757 977 l 777 855 l 711 855 l 744 654 l 766 654 l 825 282 l 891 282 l 920 104 l 833 104 l 851 -11 z "},"B":{"ha":845,"x_min":-1,"x_max":904,"o":"m 551 572 q 639 606 598 572 q 677 654 665 627 l 655 654 q 669 711 669 680 q 647 770 669 742 q 578 799 625 799 l 349 799 l 319 654 l 340 654 l 323 572 l 551 572 m 589 168 q 676 201 636 168 q 726 282 715 234 l 660 282 q 663 307 663 295 q 640 366 663 338 q 571 394 618 394 l 285 394 l 261 282 l 327 282 l 303 168 l 589 168 m 464 -11 l -1 -11 l 24 104 l 111 104 l 149 282 l 83 282 l 162 654 l 140 654 l 183 855 l 248 855 l 274 977 l 681 977 q 820 937 762 977 q 892 855 867 905 l 826 855 l 827 853 q 852 749 852 806 q 837 654 852 704 l 859 654 q 773 513 834 576 q 829 428 810 478 q 845 344 845 389 q 838 282 845 314 l 904 282 q 806 104 883 182 l 719 104 q 618 29 674 58 q 464 -11 544 -11 z "},"C":{"ha":845,"x_min":89,"x_max":972,"o":"m 418 -25 q 149 104 246 -22 l 237 104 q 160 282 178 179 l 95 282 q 89 361 89 321 q 165 654 89 511 l 142 654 q 303 855 203 770 l 369 855 q 699 989 522 986 q 972 855 872 987 l 906 855 l 930 822 l 772 703 l 756 726 q 596 811 697 810 q 454 768 523 810 q 335 654 386 726 l 357 654 q 280 482 300 574 q 271 397 271 438 q 293 282 271 335 l 359 282 q 420 197 380 230 q 545 153 471 155 q 741 239 646 154 l 767 262 l 876 144 l 829 104 l 741 104 q 418 -25 589 -22 z "},"D":{"ha":845,"x_min":17,"x_max":911,"o":"m 461 165 q 685 282 581 165 l 619 282 q 720 482 696 368 q 730 564 730 526 q 715 654 730 613 l 693 654 q 627 758 673 718 q 508 799 578 799 l 366 799 l 336 654 l 357 654 l 278 282 l 344 282 l 319 165 l 461 165 m 336 -11 l 17 -11 l 41 104 l 129 104 l 166 282 l 100 282 l 180 654 l 158 654 l 201 855 l 267 855 l 292 977 l 612 977 q 872 855 776 977 l 807 855 q 886 654 873 770 l 908 654 q 911 598 911 627 q 899 482 911 542 q 819 282 876 375 l 884 282 q 727 104 822 178 l 640 104 q 336 -11 495 -11 z "},"E":{"ha":845,"x_min":-1,"x_max":1029,"o":"m 753 -11 l -1 -11 l 23 104 l 111 104 l 148 282 l 82 282 l 161 654 l 140 654 l 182 855 l 248 855 l 273 977 l 1029 977 l 1003 855 l 937 855 l 925 798 l 348 798 l 317 654 l 339 654 l 321 572 l 784 572 l 746 394 l 283 394 l 260 282 l 326 282 l 301 167 l 878 167 l 865 104 l 778 104 l 753 -11 z "},"F":{"ha":785,"x_min":8,"x_max":981,"o":"m 185 -11 l 8 -11 l 33 104 l 119 104 l 157 282 l 92 282 l 172 654 l 150 654 l 192 855 l 257 855 l 283 977 l 981 977 l 955 855 l 889 855 l 878 799 l 357 799 l 327 654 l 349 654 l 332 572 l 732 572 l 694 394 l 294 394 l 270 282 l 335 282 l 297 104 l 210 104 l 185 -11 z "},"G":{"ha":905,"x_min":90,"x_max":998,"o":"m 394 -24 q 136 104 224 -24 l 223 104 q 159 282 171 178 l 94 282 q 90 340 90 310 q 106 482 90 407 q 165 654 126 574 l 143 654 q 291 855 199 771 l 356 855 q 675 989 500 989 q 848 966 778 989 q 962 895 918 944 l 998 855 l 932 855 l 949 835 l 802 703 l 749 763 q 721 785 739 774 q 668 803 703 795 q 572 811 633 811 q 443 771 504 811 q 332 655 380 729 l 332 654 l 353 654 q 285 482 305 579 q 273 380 273 427 q 288 282 273 326 l 353 282 q 408 194 371 227 q 519 153 452 153 q 706 212 631 153 q 769 282 745 241 l 703 282 q 731 349 721 313 l 741 395 l 477 395 l 515 572 l 957 572 l 895 282 l 961 282 l 923 104 l 836 104 l 811 -10 l 633 -10 l 643 37 q 394 -24 529 -24 z "},"H":{"ha":845,"x_min":-1,"x_max":1029,"o":"m 754 -11 l 576 -11 l 601 104 l 688 104 l 725 282 l 660 282 l 684 394 l 284 394 l 260 282 l 326 282 l 289 104 l 201 104 l 177 -11 l -1 -11 l 23 104 l 111 104 l 148 282 l 82 282 l 161 654 l 140 654 l 182 855 l 248 855 l 274 977 l 452 977 l 427 855 l 361 855 l 318 654 l 340 654 l 322 572 l 722 572 l 739 654 l 718 654 l 760 855 l 825 855 l 851 977 l 1029 977 l 1003 855 l 938 855 l 895 654 l 917 654 l 838 282 l 903 282 l 865 104 l 779 104 l 754 -11 z "},"I":{"ha":362,"x_min":46,"x_max":499,"o":"m 224 -11 l 46 -11 l 71 104 l 158 104 l 196 282 l 130 282 l 210 654 l 188 654 l 231 855 l 296 855 l 321 977 l 499 977 l 473 855 l 408 855 l 366 654 l 387 654 l 308 282 l 374 282 l 336 104 l 248 104 l 224 -11 z "},"J":{"ha":604,"x_min":-1,"x_max":779,"o":"m 196 -24 q 60 23 119 -24 q -1 104 20 56 l 87 104 q 63 176 76 125 l 240 250 l 248 222 q 276 172 256 191 q 320 154 297 154 q 425 188 389 154 q 475 282 457 218 l 409 282 q 489 654 412 292 l 467 654 l 498 800 l 321 800 l 332 855 l 398 855 l 424 977 l 779 977 l 753 855 l 688 855 l 645 654 l 667 654 q 588 288 591 296 l 587 282 l 652 282 q 564 104 625 176 l 477 104 q 438 64 459 83 q 196 -24 337 -24 z "},"K":{"ha":845,"x_min":-12,"x_max":1088,"o":"m 793 -11 l 567 -11 l 503 104 l 590 104 l 488 282 l 422 282 l 353 406 l 261 330 l 250 282 l 316 282 l 279 104 l 191 104 l 167 -11 l -12 -11 l 13 104 l 100 104 l 138 282 l 73 282 l 152 654 l 130 654 l 172 855 l 238 855 l 264 977 l 442 977 l 416 855 l 351 855 l 308 654 l 330 654 l 315 583 l 401 654 l 380 654 l 623 855 l 688 855 l 836 977 l 1088 977 l 941 855 l 875 855 l 631 654 l 653 654 l 507 533 l 648 282 l 714 282 l 816 104 l 728 104 l 793 -11 z "},"L":{"ha":724,"x_min":-4,"x_max":762,"o":"m 636 -11 l -4 -11 l 20 104 l 108 104 l 146 282 l 80 282 l 159 654 l 138 654 l 180 855 l 246 855 l 272 977 l 450 977 l 425 855 l 359 855 l 316 654 l 338 654 l 258 282 l 324 282 l 300 167 l 762 167 l 748 104 l 661 104 l 636 -11 z "},"M":{"ha":966,"x_min":1,"x_max":1148,"o":"m 779 282 l 816 454 l 715 282 l 779 282 m 585 274 l 590 282 l 584 282 l 585 274 m 328 282 l 301 454 l 264 282 l 328 282 m 872 -11 l 694 -11 l 719 104 l 806 104 l 844 282 l 781 282 l 675 104 l 588 104 l 521 -11 l 354 -11 l 336 104 l 423 104 l 394 282 l 330 282 l 292 104 l 204 104 l 180 -11 l 1 -11 l 26 104 l 113 104 l 151 282 l 86 282 l 165 654 l 143 654 l 185 855 l 251 855 l 277 977 l 450 977 l 469 855 l 404 855 l 437 654 l 458 654 l 518 282 l 524 282 l 743 654 l 721 654 l 838 855 l 904 855 l 977 977 l 1148 977 l 1122 855 l 1056 855 l 1014 654 l 1036 654 l 957 282 l 1022 282 l 984 104 l 897 104 l 872 -11 z "},"N":{"ha":845,"x_min":0,"x_max":1030,"o":"m 755 -11 l 581 -11 l 534 104 l 621 104 l 547 282 l 481 282 l 336 635 l 261 282 l 327 282 l 290 104 l 202 104 l 178 -11 l 0 -11 l 24 104 l 112 104 l 149 282 l 83 282 l 163 654 l 141 654 l 184 855 l 250 855 l 275 977 l 449 977 l 499 855 l 434 855 l 516 654 l 538 654 l 672 331 l 741 654 l 718 654 l 761 855 l 827 855 l 852 977 l 1030 977 l 1004 855 l 939 855 l 896 654 l 918 654 l 838 282 l 904 282 l 867 104 l 779 104 l 755 -11 z "},"O":{"ha":966,"x_min":112,"x_max":1030,"o":"m 567 155 q 708 198 640 155 q 804 282 761 231 l 739 282 q 838 484 814 370 q 848 568 848 528 q 836 654 848 614 l 814 654 q 742 768 792 726 q 619 811 692 811 q 477 768 546 811 q 357 654 409 726 l 379 654 l 375 650 q 303 484 323 575 q 294 399 294 439 q 317 282 294 336 l 382 282 q 444 198 404 231 q 567 155 493 155 m 441 -22 q 174 104 273 -22 l 262 104 q 184 282 202 180 l 119 282 q 112 362 112 321 q 125 484 112 420 q 188 654 144 574 l 165 654 q 326 855 227 770 l 392 855 q 722 989 548 989 q 996 855 897 989 l 931 855 q 1006 654 994 770 l 1027 654 q 1030 605 1030 630 q 1017 484 1030 547 q 938 282 994 376 l 1003 282 q 850 104 943 180 l 763 104 q 441 -22 610 -22 z "},"P":{"ha":845,"x_min":33,"x_max":983,"o":"m 643 572 q 730 606 690 572 q 769 654 756 627 l 747 654 q 762 710 762 682 q 739 770 762 741 q 669 799 716 799 l 383 799 l 353 654 l 374 654 l 357 572 l 643 572 m 211 -11 l 33 -11 l 57 104 l 144 104 l 182 282 l 117 282 l 196 654 l 174 654 l 217 855 l 283 855 l 309 977 l 773 977 q 911 937 853 977 q 983 855 958 905 l 918 855 l 918 853 q 944 748 944 806 q 928 654 944 698 l 950 654 q 888 538 930 592 q 760 433 834 473 q 605 394 685 394 l 319 394 l 295 282 l 361 282 l 323 104 l 235 104 l 211 -11 z "},"Q":{"ha":966,"x_min":100,"x_max":1018,"o":"m 555 155 q 674 186 616 155 l 599 282 l 533 282 l 512 310 l 665 436 l 755 319 q 836 567 836 435 q 823 654 836 624 l 802 654 q 730 768 780 726 q 606 811 680 811 q 465 768 534 811 q 345 654 397 726 l 367 654 l 364 650 q 292 484 311 575 q 282 399 282 439 q 305 282 282 336 l 370 282 q 432 198 392 231 q 555 155 482 155 m 770 -48 l 688 58 q 429 -22 560 -22 q 162 104 261 -22 l 250 104 q 172 282 189 180 l 106 282 q 100 362 100 321 q 113 484 100 420 q 175 654 132 574 l 153 654 q 313 855 214 770 l 379 855 q 710 989 535 989 q 984 855 885 989 l 918 855 q 994 654 981 770 l 1015 654 q 1018 602 1018 629 q 1005 484 1018 545 q 925 282 982 377 l 990 282 q 924 189 961 233 l 991 104 l 904 104 l 923 79 l 770 -48 z "},"R":{"ha":845,"x_min":25,"x_max":975,"o":"m 635 572 q 722 606 682 572 q 761 654 748 627 l 739 654 q 753 711 753 682 q 731 771 753 743 q 661 800 709 800 l 375 800 l 345 654 l 366 654 l 349 572 l 635 572 m 203 -11 l 25 -11 l 50 104 l 137 104 l 175 282 l 109 282 l 189 654 l 167 654 l 210 855 l 275 855 l 300 977 l 764 977 q 903 938 844 977 q 975 855 950 905 l 909 855 l 910 853 q 935 749 935 806 q 920 654 935 700 l 942 654 q 880 539 922 592 q 752 434 826 473 q 616 395 686 399 l 676 282 l 742 282 l 838 104 l 751 104 l 812 -10 l 589 -10 l 528 104 l 615 104 l 519 282 l 454 282 l 394 395 l 311 395 l 287 282 l 353 282 l 315 104 l 227 104 l 203 -11 z "},"S":{"ha":845,"x_min":85,"x_max":951,"o":"m 375 -22 q 172 26 256 -22 q 85 104 117 58 l 172 104 q 143 161 153 130 l 119 241 l 206 282 l 140 282 l 228 323 l 241 282 l 307 282 l 319 245 q 379 182 331 206 q 500 155 431 155 q 612 174 559 155 q 698 221 665 193 q 734 282 732 250 l 669 282 l 669 290 q 655 328 669 310 q 589 376 634 357 q 486 394 545 394 q 301 432 380 394 q 183 537 222 471 q 157 640 157 585 l 157 654 l 135 654 q 140 692 136 673 q 227 846 158 777 l 237 855 l 303 855 q 455 951 366 915 q 656 989 551 989 q 859 941 774 989 q 951 855 919 907 l 886 855 q 909 805 900 831 l 933 726 l 783 654 l 805 654 l 780 642 l 777 654 l 755 654 l 734 722 q 671 785 721 760 q 553 811 621 811 q 440 792 493 811 q 354 745 388 774 q 317 679 317 714 q 322 654 317 666 l 344 654 q 419 591 360 616 q 524 572 464 572 q 708 534 629 572 q 825 429 787 495 q 852 327 852 382 q 848 282 852 305 l 913 282 q 825 120 897 193 q 806 104 816 111 l 719 104 q 575 16 658 49 q 375 -22 480 -22 z "},"T":{"ha":845,"x_min":181,"x_max":1040,"o":"m 475 -11 l 297 -11 l 321 104 l 409 104 l 447 282 l 381 282 l 460 654 l 439 654 l 469 799 l 181 799 l 193 855 l 259 855 l 285 977 l 1040 977 l 1014 855 l 948 855 l 936 799 l 648 799 l 617 654 l 639 654 l 559 282 l 625 282 l 587 104 l 500 104 l 475 -11 z "},"U":{"ha":845,"x_min":94,"x_max":1031,"o":"m 376 -22 q 190 26 265 -22 q 114 104 142 58 l 201 104 q 158 264 158 172 l 159 283 l 94 283 q 104 365 95 322 l 165 655 l 144 655 l 186 856 l 252 856 l 277 978 l 455 978 l 429 856 l 363 856 l 321 655 l 343 655 l 281 365 q 275 302 275 331 q 275 283 275 292 l 341 283 q 367 210 344 240 q 502 156 406 156 q 660 210 597 156 q 717 283 694 240 l 651 283 q 679 365 669 319 l 741 655 l 719 655 l 762 856 l 827 856 l 853 978 l 1031 978 l 1006 856 l 940 856 l 897 655 l 919 655 l 857 365 q 833 283 848 322 l 899 283 q 781 104 859 179 l 693 104 q 583 26 644 58 q 376 -22 488 -22 z "},"V":{"ha":845,"x_min":140,"x_max":1093,"o":"m 447 -11 l 280 -11 l 262 104 l 349 104 l 320 282 l 254 282 l 195 654 l 173 654 l 140 855 l 205 855 l 186 977 l 376 977 l 395 855 l 330 855 l 363 654 l 385 654 l 445 282 l 451 282 l 669 654 l 648 654 l 764 855 l 830 855 l 902 977 l 1093 977 l 1021 855 l 955 855 l 838 654 l 859 654 l 641 282 l 707 282 l 602 104 l 514 104 l 447 -11 z "},"W":{"ha":1086,"x_min":146,"x_max":1272,"o":"m 853 -11 l 684 -11 l 675 104 l 763 104 l 749 282 l 684 282 l 657 626 l 484 282 l 549 282 l 460 104 l 372 104 l 315 -11 l 146 -11 l 154 104 l 241 104 l 253 282 l 188 282 l 213 654 l 191 654 l 204 855 l 269 855 l 278 977 l 458 977 l 450 855 l 384 855 l 371 654 l 393 654 l 378 441 l 486 654 l 464 654 l 564 855 l 630 855 l 692 977 l 859 977 l 868 855 l 802 855 l 819 654 l 840 654 l 857 441 l 933 654 l 911 654 l 983 855 l 1048 855 l 1092 977 l 1272 977 l 1227 855 l 1162 855 l 1091 654 l 1113 654 l 980 282 l 1045 282 l 981 104 l 894 104 l 853 -11 z "},"X":{"ha":845,"x_min":-94,"x_max":1143,"o":"m 868 -11 l 646 -11 l 585 104 l 672 104 l 576 282 l 511 282 l 483 335 l 432 282 l 498 282 l 326 104 l 239 104 l 129 -11 l -94 -11 l 16 104 l 104 104 l 275 282 l 210 282 l 403 483 l 311 654 l 290 654 l 182 855 l 248 855 l 182 977 l 404 977 l 470 855 l 405 855 l 512 654 l 534 654 l 546 631 l 568 654 l 546 654 l 739 855 l 804 855 l 922 977 l 1143 977 l 1027 855 l 961 855 l 768 654 l 790 654 l 625 483 l 733 282 l 798 282 l 895 104 l 807 104 l 868 -11 z "},"Y":{"ha":845,"x_min":149,"x_max":1112,"o":"m 444 -11 l 266 -11 l 290 104 l 378 104 l 416 282 l 351 282 l 387 454 l 279 654 l 257 654 l 149 855 l 214 855 l 149 977 l 372 977 l 437 855 l 372 855 l 479 654 l 502 654 l 513 631 l 536 654 l 513 654 l 706 855 l 771 855 l 889 977 l 1112 977 l 994 855 l 928 855 l 736 654 l 758 654 l 565 454 l 528 282 l 593 282 l 555 104 l 468 104 l 444 -11 z "},"Z":{"ha":845,"x_min":-2,"x_max":1029,"o":"m 753 -11 l -2 -11 l 22 104 l 110 104 l 126 178 l 237 282 l 171 282 l 568 654 l 547 654 l 701 799 l 170 799 l 182 855 l 248 855 l 274 977 l 1029 977 l 1003 855 l 937 855 l 923 787 l 781 654 l 803 654 l 405 282 l 471 282 l 348 168 l 878 168 l 865 104 l 777 104 l 753 -11 z "},".":{"ha":282,"x_min":-18,"x_max":334,"o":"m 199 -31 l -18 -31 l 11 104 l 98 104 l 116 187 l 334 187 l 316 104 l 229 104 l 199 -31 z "},":":{"ha":282,"x_min":-18,"x_max":369,"o":"m 345 548 l 127 548 l 150 654 l 127 654 l 151 766 l 369 766 l 345 654 l 368 654 l 345 548 m 199 -31 l -18 -31 l 11 104 l 98 104 l 116 187 l 334 187 l 316 104 l 229 104 l 199 -31 z "},",":{"ha":282,"x_min":-52,"x_max":334,"o":"m 57 -186 l -52 -186 l 90 -31 l -18 -31 l 10 104 l 98 104 l 116 187 l 334 187 l 315 104 l 228 104 l 199 -31 l 57 -186 z "},";":{"ha":282,"x_min":-51,"x_max":369,"o":"m 345 549 l 127 549 l 149 655 l 127 655 l 151 767 l 369 767 l 345 655 l 367 655 l 345 549 m 58 -186 l -51 -186 l 91 -31 l -18 -31 l 11 104 l 98 104 l 116 188 l 334 188 l 316 104 l 229 104 l 199 -31 l 58 -186 z "},"'":{"ha":282,"x_min":181,"x_max":504,"o":"m 304 668 l 196 668 l 181 855 l 246 855 l 286 1042 l 504 1042 l 464 855 l 399 855 l 304 668 z "},"\"":{"ha":526,"x_min":187,"x_max":743,"o":"m 543 668 l 434 668 l 420 855 l 405 855 l 311 668 l 201 668 l 187 855 l 253 855 l 292 1042 l 510 1042 l 471 855 l 486 855 l 525 1042 l 743 1042 l 703 855 l 637 855 l 543 668 z "},"(":{"ha":422,"x_min":62,"x_max":623,"o":"m 311 -184 l 121 -184 q 94 -58 109 -113 q 62 104 75 18 l 149 104 q 139 231 139 170 q 141 282 139 257 l 75 282 q 90 394 79 336 q 186 650 123 543 l 189 654 l 167 654 q 288 849 224 759 l 291 855 l 357 855 q 435 977 393 909 l 623 977 q 550 855 572 889 l 485 855 q 432 773 460 814 q 356 654 393 715 l 378 654 q 343 595 359 625 q 268 394 293 504 q 255 282 257 336 l 321 282 l 321 265 q 339 104 321 197 l 252 104 q 272 17 260 59 q 300 -125 290 -56 l 311 -184 z "},"!":{"ha":282,"x_min":-18,"x_max":480,"o":"m 199 -31 l -18 -31 l 11 104 l 98 104 l 116 188 l 334 188 l 316 104 l 229 104 l 199 -31 m 320 221 l 144 221 l 155 283 l 90 283 l 158 655 l 136 655 l 173 856 l 239 856 l 261 978 l 480 978 l 451 856 l 386 856 l 337 655 l 359 655 l 270 283 l 336 283 l 320 221 z "},"?":{"ha":673,"x_min":162,"x_max":829,"o":"m 380 -31 l 162 -31 l 191 104 l 278 104 l 296 187 l 513 187 l 496 104 l 408 104 l 380 -31 m 501 220 l 323 220 l 336 282 l 271 282 q 300 383 286 354 q 386 491 330 445 q 496 568 437 532 q 595 644 581 623 l 602 654 l 581 654 q 603 721 603 690 q 564 794 603 768 q 512 808 542 808 q 396 769 452 808 q 294 692 371 752 l 200 823 l 243 855 l 309 855 q 387 913 368 901 q 616 986 495 986 q 751 948 692 986 q 829 855 804 913 l 764 855 q 785 758 785 809 q 764 654 785 704 l 787 654 q 655 483 747 551 q 572 426 614 453 q 463 340 473 363 q 448 282 459 330 l 514 282 l 501 220 z "},")":{"ha":422,"x_min":-50,"x_max":493,"o":"m 140 -184 l -50 -184 q 75 17 33 -45 q 132 104 104 59 l 219 104 q 313 282 286 211 l 248 282 q 283 395 269 336 q 297 526 297 464 q 283 654 297 581 l 262 654 q 237 773 252 715 q 218 855 226 814 l 283 855 q 263 977 277 889 l 451 977 q 477 855 464 909 l 412 855 q 451 654 435 777 l 473 654 q 479 570 479 631 q 427 282 479 426 l 493 282 q 409 104 464 199 l 321 104 q 220 -58 272 18 q 140 -184 184 -111 z "},"+":{"ha":604,"x_min":66,"x_max":656,"o":"m 445 105 l 267 105 l 304 278 l 132 278 l 132 282 l 66 282 l 104 456 l 277 456 l 313 630 l 491 630 l 454 456 l 628 456 l 591 282 l 656 282 l 655 278 l 482 278 l 445 105 z "},"-":{"ha":604,"x_min":98,"x_max":661,"o":"m 623 279 l 98 279 l 136 457 l 661 457 l 623 279 z "},"*":{"ha":422,"x_min":174,"x_max":602,"o":"m 369 677 l 332 758 l 260 678 l 174 745 l 252 833 l 184 855 l 250 855 l 235 860 l 296 976 l 377 948 l 397 1042 l 518 1042 l 498 948 l 591 976 l 602 860 l 585 855 l 519 855 l 443 833 l 484 745 l 369 677 z "},"/":{"ha":484,"x_min":-69,"x_max":758,"o":"m 121 -11 l -69 -11 l -3 104 l 85 104 l 189 282 l 123 282 l 338 654 l 317 654 l 433 855 l 498 855 l 568 977 l 758 977 l 688 855 l 622 855 l 506 654 l 528 654 l 313 282 l 378 282 l 275 104 l 187 104 l 121 -11 z "},"=":{"ha":604,"x_min":66,"x_max":657,"o":"m 631 163 l 106 163 l 132 282 l 66 282 l 79 341 l 604 341 l 591 282 l 657 282 l 631 163 m 615 395 l 90 395 l 128 573 l 653 573 l 615 395 z "},"\\":{"ha":484,"x_min":148,"x_max":540,"o":"m 470 -11 l 280 -11 l 262 104 l 350 104 l 323 282 l 257 282 l 201 654 l 178 654 l 148 855 l 214 855 l 195 977 l 384 977 l 403 855 l 338 855 l 368 654 l 390 654 l 447 282 l 513 282 l 540 104 l 452 104 l 470 -11 z "},"_":{"ha":483,"x_min":-60,"x_max":503,"o":"m 465 -184 l -60 -184 l -22 -5 l 503 -5 l 465 -184 z "},"[":{"ha":422,"x_min":-37,"x_max":627,"o":"m 315 -184 l -37 -184 l 24 104 l 112 104 l 150 282 l 84 282 l 163 654 l 142 654 l 184 855 l 249 855 l 275 977 l 627 977 l 601 855 l 535 855 l 524 800 l 351 800 l 320 654 l 342 654 l 262 282 l 328 282 l 290 104 l 203 104 l 179 -7 l 352 -7 l 315 -184 z "},"]":{"ha":422,"x_min":-47,"x_max":616,"o":"m 304 -184 l -47 -184 l -10 -7 l 163 -7 l 186 104 l 274 104 l 312 282 l 246 282 l 326 654 l 304 654 l 334 800 l 161 800 l 173 855 l 238 855 l 264 977 l 616 977 l 590 855 l 524 855 l 482 654 l 504 654 l 425 282 l 490 282 l 452 104 l 365 104 l 304 -184 z "},"|":{"ha":241,"x_min":-64,"x_max":475,"o":"m 115 -243 l -64 -243 l 10 104 l 98 104 l 135 282 l 69 282 l 149 654 l 127 654 l 170 855 l 235 855 l 297 1150 l 475 1150 l 413 855 l 348 855 l 305 654 l 327 654 l 248 282 l 313 282 l 276 104 l 189 104 l 115 -243 z "},"­":{"ha":604,"x_min":98,"x_max":661,"o":"m 623 279 l 98 279 l 136 457 l 661 457 l 623 279 z "},"ʹ":{"ha":282,"x_min":181,"x_max":504,"o":"m 304 668 l 196 668 l 181 855 l 246 855 l 286 1042 l 504 1042 l 464 855 l 399 855 l 304 668 z "},"ʺ":{"ha":526,"x_min":187,"x_max":743,"o":"m 543 668 l 434 668 l 420 855 l 405 855 l 311 668 l 201 668 l 187 855 l 253 855 l 292 1042 l 510 1042 l 471 855 l 486 855 l 525 1042 l 743 1042 l 703 855 l 637 855 l 543 668 z "},"ʻ":{"ha":282,"x_min":181,"x_max":504,"o":"m 304 668 l 196 668 l 181 855 l 246 855 l 286 1042 l 504 1042 l 464 855 l 399 855 l 304 668 z "},"ʼ":{"ha":282,"x_min":181,"x_max":504,"o":"m 304 668 l 196 668 l 181 855 l 246 855 l 286 1042 l 504 1042 l 464 855 l 399 855 l 304 668 z "},"ʽ":{"ha":282,"x_min":181,"x_max":504,"o":"m 304 668 l 196 668 l 181 855 l 246 855 l 286 1042 l 504 1042 l 464 855 l 399 855 l 304 668 z "},"‘":{"ha":282,"x_min":181,"x_max":504,"o":"m 304 668 l 196 668 l 181 855 l 246 855 l 286 1042 l 504 1042 l 464 855 l 399 855 l 304 668 z "},"’":{"ha":282,"x_min":181,"x_max":504,"o":"m 304 668 l 196 668 l 181 855 l 246 855 l 286 1042 l 504 1042 l 464 855 l 399 855 l 304 668 z "},"‚":{"ha":282,"x_min":181,"x_max":504,"o":"m 304 668 l 196 668 l 181 855 l 246 855 l 286 1042 l 504 1042 l 464 855 l 399 855 l 304 668 z "},"‛":{"ha":282,"x_min":181,"x_max":504,"o":"m 304 668 l 196 668 l 181 855 l 246 855 l 286 1042 l 504 1042 l 464 855 l 399 855 l 304 668 z "},"“":{"ha":526,"x_min":187,"x_max":743,"o":"m 543 668 l 434 668 l 420 855 l 405 855 l 311 668 l 201 668 l 187 855 l 253 855 l 292 1042 l 510 1042 l 471 855 l 486 855 l 525 1042 l 743 1042 l 703 855 l 637 855 l 543 668 z "},"”":{"ha":526,"x_min":187,"x_max":743,"o":"m 543 668 l 434 668 l 420 855 l 405 855 l 311 668 l 201 668 l 187 855 l 253 855 l 292 1042 l 510 1042 l 471 855 l 486 855 l 525 1042 l 743 1042 l 703 855 l 637 855 l 543 668 z "},"„":{"ha":526,"x_min":187,"x_max":743,"o":"m 543 668 l 434 668 l 420 855 l 405 855 l 311 668 l 201 668 l 187 855 l 253 855 l 292 1042 l 510 1042 l 471 855 l 486 855 l 525 1042 l 743 1042 l 703 855 l 637 855 l 543 668 z "},"‟":{"ha":526,"x_min":187,"x_max":743,"o":"m 543 668 l 434 668 l 420 855 l 405 855 l 311 668 l 201 668 l 187 855 l 253 855 l 292 1042 l 510 1042 l 471 855 l 486 855 l 525 1042 l 743 1042 l 703 855 l 637 855 l 543 668 z "},"…":{"ha":727,"x_min":-18,"x_max":779,"o":"m 240 104 l 222 104 l 193 -31 l -18 -31 l 11 104 l 98 104 l 116 187 l 327 187 l 309 104 l 328 104 l 345 187 l 549 187 l 532 104 l 550 104 l 568 187 l 779 187 l 761 104 l 673 104 l 644 -31 l 433 -31 l 463 104 l 444 104 l 415 -31 l 211 -31 l 240 104 z "},"‒":{"ha":604,"x_min":98,"x_max":661,"o":"m 623 279 l 98 279 l 136 457 l 661 457 l 623 279 z "},"–":{"ha":604,"x_min":98,"x_max":661,"o":"m 623 279 l 98 279 l 136 457 l 661 457 l 623 279 z "},"−":{"ha":604,"x_min":98,"x_max":661,"o":"m 623 279 l 98 279 l 136 457 l 661 457 l 623 279 z "},"—":{"ha":604,"x_min":98,"x_max":661,"o":"m 623 279 l 98 279 l 136 457 l 661 457 l 623 279 z "},"―":{"ha":604,"x_min":98,"x_max":661,"o":"m 623 279 l 98 279 l 136 457 l 661 457 l 623 279 z "},"$":{"ha":845,"x_min":85,"x_max":951,"o":"m 576 163 q 699 221 650 180 q 734 282 732 250 l 669 282 l 669 290 q 655 328 669 310 q 558 386 625 370 l 536 282 l 602 282 l 576 163 m 450 581 l 467 654 l 444 654 l 475 803 q 353 745 403 786 q 317 679 317 714 q 322 654 317 666 l 344 654 q 353 638 347 646 q 450 581 385 597 m 415 -184 l 266 -184 l 301 -17 q 172 26 229 -7 q 85 104 117 58 l 172 104 q 143 161 153 130 l 119 241 l 206 282 l 140 282 l 228 323 l 241 282 l 307 282 l 319 245 q 379 182 331 206 q 427 163 401 170 l 452 282 l 387 282 l 412 399 q 301 432 350 408 q 183 537 222 471 q 156 642 156 585 l 157 654 l 135 654 q 140 692 136 673 q 227 846 158 777 l 237 855 l 302 855 q 456 951 366 915 q 580 985 515 976 l 615 1150 l 764 1150 l 729 984 q 860 940 802 974 q 951 855 919 907 l 886 855 q 909 805 900 831 l 933 726 l 783 654 l 754 654 l 734 722 q 672 785 721 760 q 625 802 650 796 l 593 654 l 616 654 l 597 567 q 707 534 658 559 q 825 429 787 495 q 852 326 852 382 q 848 282 852 304 l 913 282 q 825 120 897 193 l 806 104 l 719 104 q 575 16 658 49 q 450 -18 515 -9 l 415 -184 z "},"#":{"ha":724,"x_min":67,"x_max":876,"o":"m 424 104 l 463 220 l 412 220 l 372 104 l 424 104 m 458 399 l 515 568 l 464 568 l 407 399 l 458 399 m 553 745 l 590 855 l 538 855 l 501 745 l 553 745 m 477 -11 l 298 -11 l 336 104 l 285 104 l 247 -11 l 67 -11 l 106 104 l 193 104 l 233 220 l 151 220 l 163 282 l 98 282 l 123 399 l 227 399 l 284 568 l 216 568 l 235 654 l 213 654 l 232 745 l 322 745 l 359 855 l 425 855 l 466 977 l 645 977 l 604 855 l 656 855 l 696 977 l 876 977 l 836 855 l 770 855 l 732 745 l 814 745 l 795 654 l 817 654 l 799 568 l 694 568 l 637 399 l 705 399 l 680 282 l 746 282 l 733 220 l 643 220 l 604 104 l 516 104 l 477 -11 z "},"%":{"ha":975,"x_min":149,"x_max":1027,"o":"m 799 159 q 825 191 810 167 q 843 241 837 212 q 847 275 847 260 l 847 283 l 804 283 q 786 206 786 245 q 799 159 786 174 m 781 283 l 781 292 q 768 324 777 315 q 739 283 751 311 l 781 283 m 557 629 l 572 655 l 568 655 q 557 629 563 642 m 366 637 q 382 655 374 643 l 361 655 q 388 720 380 682 q 392 754 392 739 q 379 802 392 788 q 335 720 347 779 q 331 684 331 701 q 335 655 331 669 l 357 655 q 366 637 361 642 m 673 -21 q 543 58 585 -21 q 524 104 530 80 l 612 104 q 604 169 604 135 q 623 283 604 224 l 612 283 l 509 104 l 422 104 l 355 -10 l 165 -10 l 231 104 l 319 104 l 422 283 l 357 283 l 530 583 q 493 536 513 558 q 327 456 415 456 q 197 536 239 456 q 171 646 171 585 l 171 655 l 149 655 q 157 720 149 686 q 214 856 173 795 l 280 856 q 317 902 296 880 q 483 982 394 982 q 614 902 571 982 q 632 856 625 880 l 566 856 q 574 791 574 826 q 547 655 574 725 l 551 655 l 667 856 l 732 856 l 803 978 l 992 978 l 922 856 l 856 856 l 740 655 l 762 655 l 547 283 l 557 283 q 642 425 585 364 q 806 504 718 504 q 938 425 895 504 q 964 317 964 377 q 962 283 964 300 l 1027 283 q 1021 241 1026 262 q 963 104 1005 165 l 876 104 q 839 58 859 80 q 673 -21 762 -21 z "},"&":{"ha":725,"x_min":71,"x_max":758,"o":"m 400 654 q 431 685 417 669 q 461 759 461 720 q 458 779 461 770 q 434 811 449 803 l 425 806 q 377 722 377 774 q 394 654 377 692 l 400 654 m 378 157 q 498 220 431 157 q 472 282 486 253 l 406 282 q 342 394 383 330 q 294 351 315 372 q 260 282 269 323 l 326 282 q 323 245 323 262 q 378 157 323 157 m 252 -22 q 145 7 189 -22 q 71 104 91 42 l 158 104 q 140 206 140 150 q 147 282 140 242 l 81 282 l 84 293 q 201 484 106 396 q 258 532 229 509 q 218 654 222 600 l 196 654 q 195 682 195 668 q 253 855 195 774 l 319 855 l 323 862 q 421 953 366 918 q 538 990 484 990 q 639 953 592 990 q 700 855 682 916 l 634 855 q 643 793 643 825 q 606 654 643 722 l 627 654 q 553 557 593 597 q 502 512 528 534 q 564 404 534 463 l 601 471 l 758 416 q 684 282 697 302 l 749 282 q 704 213 728 245 q 725 104 718 162 l 637 104 q 648 -11 642 64 l 460 -11 q 456 50 457 37 q 252 -22 353 -22 z "},"@":{"ha":967,"x_min":96,"x_max":1029,"o":"m 346 282 q 332 361 332 319 q 339 426 332 392 q 439 605 361 530 q 506 654 472 636 l 484 654 q 591 682 535 682 q 631 678 612 682 l 631 682 l 809 682 l 804 654 l 825 654 l 777 426 q 770 381 770 395 q 772 370 770 374 q 777 351 774 355 q 812 412 800 368 l 819 441 l 819 442 q 848 651 848 581 l 848 654 l 826 654 q 809 739 825 709 q 747 785 790 772 q 616 799 698 799 q 366 654 457 799 l 387 654 q 302 431 331 566 q 285 292 288 361 l 284 282 l 346 282 m 541 347 q 570 366 553 347 q 602 451 602 402 q 595 485 602 470 q 574 504 586 504 q 546 485 562 504 q 514 400 514 449 q 521 366 514 381 q 541 347 529 347 m 739 -127 l 419 -127 q 229 -83 304 -127 q 96 104 127 -23 l 183 104 q 168 234 168 162 q 169 282 168 258 l 103 282 q 191 637 113 465 q 200 654 195 648 l 178 654 q 326 855 237 779 l 391 855 q 718 977 530 977 q 907 951 831 977 q 1027 858 987 923 l 1029 855 l 964 855 q 1004 673 1004 787 l 1004 654 l 1025 654 q 994 428 1022 559 q 929 282 976 342 l 995 282 q 908 201 956 231 q 800 168 854 169 q 699 212 737 168 q 569 169 636 169 q 429 246 477 169 q 412 282 418 264 l 350 282 l 350 271 q 403 104 350 160 l 315 104 q 457 52 363 52 l 777 52 l 739 -127 z "},"<":{"ha":604,"x_min":67,"x_max":669,"o":"m 615 87 l 138 282 l 72 282 l 67 284 l 102 452 l 669 648 l 628 458 l 370 368 l 579 282 l 644 282 l 656 278 l 615 87 z "},">":{"ha":604,"x_min":81,"x_max":653,"o":"m 94 87 l 134 278 l 146 282 l 81 282 l 327 368 l 106 458 l 147 648 l 629 452 l 593 284 l 588 282 l 653 282 l 94 87 z "},"{":{"ha":422,"x_min":47,"x_max":616,"o":"m 304 -184 l 216 -184 q 81 -136 124 -184 q 47 -43 47 -97 q 54 20 47 -14 l 71 104 l 159 104 q 191 260 191 256 q 187 274 191 269 q 170 278 183 278 l 138 278 l 139 282 l 74 282 l 123 515 l 155 515 q 175 520 168 515 q 185 538 181 525 l 210 654 l 189 654 l 214 772 q 243 855 224 821 l 309 855 q 373 929 332 897 q 528 977 437 977 l 616 977 l 591 855 l 526 855 l 513 799 q 402 797 408 799 q 392 772 397 795 l 367 654 l 389 654 l 365 541 q 320 444 355 495 q 277 396 301 417 q 307 296 307 355 l 307 282 l 372 282 q 369 252 372 267 l 337 104 l 250 104 q 229 -4 229 5 q 342 -6 233 -6 l 304 -184 z "},"}":{"ha":422,"x_min":-47,"x_max":522,"o":"m 41 -184 l -47 -184 l -9 -6 q 106 -3 104 -6 q 130 104 109 5 l 217 104 q 258 282 253 269 l 192 282 q 271 396 218 350 q 241 500 241 437 q 245 541 241 522 l 269 654 l 247 654 q 275 797 275 789 l 272 797 q 161 799 266 799 l 174 855 l 239 855 l 265 977 l 354 977 q 488 929 445 977 q 522 855 516 897 l 456 855 q 457 832 457 844 q 450 772 457 805 l 425 654 l 447 654 q 422 532 422 536 q 426 519 422 524 q 444 515 430 515 l 475 515 l 425 282 l 491 282 l 490 278 l 458 278 q 439 273 446 278 q 428 255 432 268 l 395 104 l 308 104 l 290 20 q 197 -136 271 -79 q 41 -184 133 -184 z "},"^":{"ha":604,"x_min":117,"x_max":678,"o":"m 678 452 l 488 452 l 455 654 l 433 654 l 427 692 l 405 654 l 427 654 l 308 452 l 117 452 l 237 654 l 215 654 l 333 855 l 399 855 l 470 977 l 637 977 l 656 855 l 591 855 l 623 654 l 645 654 l 678 452 z "},"~":{"ha":845,"x_min":94,"x_max":887,"o":"m 698 220 q 588 242 639 220 q 509 282 547 260 l 444 282 l 433 288 q 366 323 399 308 q 311 336 338 336 q 285 334 289 336 q 272 279 282 328 l 94 279 l 101 310 q 206 475 125 424 q 349 515 267 515 q 458 493 408 515 q 548 447 505 473 q 615 412 582 427 q 670 399 644 399 q 696 401 691 399 q 709 456 698 408 l 887 456 l 880 425 q 804 282 861 334 l 870 282 q 698 220 804 220 z "},"☡":{"ha":845,"x_min":-8,"x_max":885,"o":"m 760 -11 l 414 -11 l 438 104 l 526 104 l 563 282 l 497 282 l 566 608 l 375 282 l 441 282 l 336 104 l 249 104 l 182 -11 l -8 -11 l 59 104 l 146 104 l 250 282 l 185 282 l 404 654 l 382 654 l 500 855 l 566 855 l 637 977 l 867 977 l 841 855 l 776 855 l 733 654 l 755 654 l 675 282 l 741 282 l 716 167 l 885 167 l 872 104 l 785 104 l 760 -11 z "},"•":{"ha":604,"x_min":135,"x_max":672,"o":"m 414 220 q 258 282 317 220 l 192 282 q 135 424 135 341 q 142 483 135 452 q 242 654 163 581 l 220 654 q 437 745 320 745 q 607 669 546 745 l 617 654 l 639 654 q 672 541 672 604 q 666 483 672 513 q 530 282 640 361 l 595 282 q 414 220 511 220 z "},"¡":{"ha":282,"x_min":-59,"x_max":372,"o":"m 160 -243 l -59 -243 l 24 104 l 111 104 l 155 282 l 89 282 l 145 514 l 321 514 l 279 282 l 345 282 l 311 104 l 224 104 l 160 -243 m 349 549 l 133 549 l 155 654 l 134 654 l 157 764 l 372 764 l 349 654 l 371 654 l 349 549 z "},"¿":{"ha":673,"x_min":37,"x_max":658,"o":"m 271 -243 q 136 -205 195 -243 q 52 -99 77 -167 q 37 -12 37 -56 q 63 104 37 48 l 151 104 q 275 260 191 197 l 306 282 l 240 282 q 292 317 267 301 q 402 404 391 380 q 429 523 407 416 l 607 523 l 591 445 q 565 360 580 389 q 510 282 544 317 l 576 282 q 435 175 532 235 q 339 104 357 125 l 252 104 l 249 100 q 219 29 220 60 q 258 -50 219 -24 q 309 -65 280 -65 q 425 -26 370 -65 q 527 52 455 -5 l 621 -79 l 576 -113 q 499 -170 544 -140 q 398 -221 455 -200 q 271 -243 341 -243 m 633 557 l 418 557 l 439 654 l 417 654 l 442 773 l 658 773 l 633 654 l 654 654 l 633 557 z "},"∙":{"ha":604,"x_min":135,"x_max":672,"o":"m 414 220 q 258 282 317 220 l 192 282 q 135 424 135 341 q 142 483 135 452 q 242 654 163 581 l 220 654 q 437 745 320 745 q 607 669 546 745 l 617 654 l 639 654 q 672 541 672 604 q 666 483 672 513 q 530 282 640 361 l 595 282 q 414 220 511 220 z "},"€":{"ha":845,"x_min":56,"x_max":1023,"o":"m 526 -25 q 256 104 353 -22 l 343 104 q 268 282 285 180 l 203 282 q 199 306 201 294 l 56 306 l 187 456 l 203 456 l 209 482 l 215 509 l 100 509 l 227 654 l 205 654 l 209 659 l 252 659 q 410 855 314 772 l 476 855 q 806 989 629 986 q 1011 924 927 987 l 1023 915 l 1011 855 l 945 855 l 905 667 l 863 726 q 703 811 805 810 q 562 768 629 810 q 444 659 494 726 l 862 659 l 859 654 l 880 654 l 753 509 l 393 509 l 387 482 l 382 456 l 724 456 l 593 306 l 391 306 q 400 282 395 294 l 466 282 q 527 197 487 231 q 652 153 578 155 q 847 239 753 154 l 896 282 l 911 282 l 873 104 l 785 104 l 774 50 l 758 40 q 526 -25 646 -23 m 845 282 l 831 282 l 848 298 l 845 282 z "},"©":{"ha":1086,"x_min":117,"x_max":1151,"o":"m 849 282 q 962 484 937 370 q 969 553 969 519 q 949 654 969 610 l 928 654 q 836 767 899 725 q 682 811 771 811 q 507 767 591 811 q 369 654 427 725 l 391 654 l 385 648 q 307 484 326 574 q 299 411 299 446 q 332 282 299 340 l 380 282 q 348 412 348 342 q 356 484 348 446 q 439 654 376 577 l 417 654 q 455 696 435 675 q 675 789 561 789 q 871 706 795 789 l 890 684 l 857 654 l 878 654 l 763 553 l 745 574 q 659 612 712 612 q 584 576 620 612 q 534 484 545 539 q 530 446 530 464 q 544 391 530 415 q 604 355 565 355 q 707 393 658 355 l 734 414 l 829 284 l 826 282 l 849 282 m 630 156 q 804 200 720 156 q 915 282 865 233 l 892 282 l 866 262 q 633 178 753 178 q 453 270 518 178 l 446 282 l 398 282 q 475 200 427 233 q 630 156 540 156 m 505 -22 q 198 104 314 -22 l 286 104 q 192 282 215 180 l 127 282 q 117 375 117 327 q 129 484 117 427 q 194 654 148 574 l 172 654 q 349 855 237 770 l 414 855 q 785 989 587 989 q 1099 855 983 989 l 1034 855 q 1124 654 1107 770 l 1146 654 q 1151 590 1151 623 q 1139 484 1151 538 q 1055 282 1116 376 l 1120 282 q 952 104 1054 180 l 865 104 q 505 -22 695 -22 z "},"°":{"ha":724,"x_min":171,"x_max":857,"o":"m 484 526 q 593 568 543 526 q 653 654 638 605 l 631 654 q 638 701 638 684 q 610 775 638 740 q 523 811 583 811 q 414 770 465 811 q 349 654 356 722 l 371 654 q 370 636 370 645 q 393 568 370 598 q 484 526 425 526 m 446 349 q 295 392 359 349 q 203 507 232 435 q 187 598 187 550 q 193 654 187 625 l 171 654 q 273 855 186 764 l 338 855 q 456 946 390 910 q 627 989 538 989 q 779 946 715 989 q 857 855 830 910 l 791 855 l 793 854 q 820 739 820 802 q 810 654 820 709 l 831 654 q 757 507 810 574 q 617 392 699 435 q 446 349 535 349 z "},"¢":{"ha":665,"x_min":50,"x_max":747,"o":"m 259 283 l 376 559 q 286 475 324 532 q 240 368 252 427 q 234 313 234 340 q 236 283 234 298 l 259 283 m 310 248 l 325 283 l 302 283 q 310 248 304 264 m 189 -190 l 50 -159 l 132 36 q 74 104 98 64 l 161 104 q 117 272 117 177 l 117 283 l 52 283 q 62 368 52 324 q 148 563 84 475 q 233 655 186 615 l 212 655 q 437 754 316 745 l 481 856 l 547 856 l 574 920 l 713 889 l 699 856 l 633 856 l 582 734 q 699 655 648 709 l 720 655 q 724 651 722 653 q 747 626 726 650 l 595 497 l 577 518 q 528 558 555 543 l 412 283 l 477 283 l 425 160 q 580 219 505 161 l 606 239 l 703 112 l 694 104 l 606 104 q 297 -19 454 -19 q 262 -17 279 -19 l 189 -190 z "},"µ":{"ha":724,"x_min":-52,"x_max":800,"o":"m 126 -243 l -52 -243 l 22 104 l 109 104 l 146 282 l 81 282 l 82 286 q 159 654 83 296 l 138 654 l 157 746 l 336 746 l 316 654 l 338 654 l 260 282 l 326 282 l 325 265 q 332 223 325 241 q 376 175 346 191 q 440 159 406 159 q 513 175 475 159 q 606 282 581 205 l 541 282 q 621 654 545 294 l 600 654 l 619 746 l 798 746 l 778 654 l 800 654 l 720 282 l 785 282 l 748 104 l 661 104 l 637 -11 l 458 -11 l 469 41 q 315 -20 393 -20 q 180 11 237 -20 l 126 -243 z "},"«":{"ha":604,"x_min":94,"x_max":675,"o":"m 385 269 l 347 87 l 128 282 l 96 282 l 94 284 l 130 452 l 433 648 l 394 466 l 675 648 l 635 458 l 496 368 l 592 282 l 625 282 l 630 278 l 589 87 l 385 269 m 370 444 l 254 368 l 338 292 l 370 444 z "},"»":{"ha":604,"x_min":85,"x_max":635,"o":"m 376 466 l 415 648 l 635 452 l 600 284 l 596 282 l 629 282 l 328 87 l 368 270 l 85 87 l 126 278 l 133 282 l 100 282 l 232 368 l 132 458 l 172 648 l 376 466 m 359 292 l 475 368 l 391 444 l 359 292 z "},"‹":{"ha":362,"x_min":92,"x_max":432,"o":"m 346 87 l 127 282 l 95 282 l 92 284 l 128 452 l 432 648 l 391 458 l 253 368 l 349 282 l 381 282 l 387 278 l 346 87 z "},"›":{"ha":362,"x_min":87,"x_max":394,"o":"m 87 87 l 127 278 l 134 282 l 102 282 l 233 368 l 133 458 l 174 648 l 394 452 l 358 284 l 355 282 l 388 282 l 87 87 z "},"¥":{"ha":845,"x_min":61,"x_max":1112,"o":"m 444 -11 l 266 -11 l 290 104 l 378 104 l 393 178 l 104 178 l 127 282 l 61 282 l 71 327 l 359 327 l 377 410 l 88 410 l 120 559 l 330 559 l 279 654 l 257 654 l 149 855 l 214 855 l 149 977 l 372 977 l 437 855 l 372 855 l 479 654 l 501 654 l 513 631 l 535 654 l 513 654 l 705 855 l 771 855 l 889 977 l 1112 977 l 994 855 l 928 855 l 736 654 l 758 654 l 666 559 l 874 559 l 842 410 l 555 410 l 537 327 l 825 327 l 815 282 l 881 282 l 859 178 l 571 178 l 555 104 l 468 104 l 444 -11 z "},"®":{"ha":1086,"x_min":117,"x_max":1151,"o":"m 849 282 q 962 484 937 370 q 969 553 969 519 q 949 654 969 610 l 928 654 q 837 767 899 725 q 682 811 772 811 q 495 760 585 811 l 722 760 q 846 705 801 760 q 871 654 863 682 l 893 654 q 899 611 899 634 q 895 570 899 591 q 829 453 880 504 q 758 402 797 420 l 822 282 l 849 282 m 897 265 l 914 282 l 887 282 l 897 265 m 702 558 q 712 563 707 558 q 717 574 717 567 q 707 583 717 583 l 608 583 l 603 558 l 702 558 m 600 282 l 560 356 l 544 282 l 600 282 m 630 156 q 817 207 727 156 l 706 207 l 665 282 l 610 282 l 594 207 l 465 207 q 630 156 533 156 m 425 245 l 432 282 l 398 282 q 425 245 410 262 m 366 282 l 446 654 l 424 654 l 438 722 q 370 654 401 692 l 391 654 q 307 484 328 583 q 299 412 299 446 q 333 282 299 341 l 366 282 m 505 -22 q 198 104 314 -22 l 286 104 q 193 282 215 180 l 127 282 q 117 375 117 327 q 129 484 117 427 q 194 654 148 574 l 172 654 q 349 855 237 770 l 414 855 q 785 989 587 989 q 1099 855 983 989 l 1034 855 q 1124 654 1108 769 l 1146 654 q 1151 590 1151 623 q 1139 484 1151 538 q 1055 282 1116 376 l 1120 282 q 952 104 1055 180 l 865 104 q 505 -22 695 -22 z "},"℗":{"ha":1086,"x_min":117,"x_max":1151,"o":"m 727 558 q 738 562 732 558 q 743 574 743 566 q 732 583 743 583 l 633 583 l 628 558 l 727 558 m 392 282 l 471 654 l 449 654 l 468 744 q 369 654 412 707 l 391 654 q 307 484 328 583 q 298 412 298 446 q 332 282 298 341 l 392 282 m 445 223 l 457 282 l 398 282 q 445 223 417 249 m 629 156 q 804 200 720 156 q 914 282 865 233 l 849 282 q 962 484 937 370 q 969 553 969 519 q 952 648 969 604 l 949 654 l 927 654 q 836 767 899 725 q 681 811 771 811 q 495 760 585 811 l 748 760 q 871 705 827 760 q 897 654 889 682 l 918 654 q 924 610 924 633 q 920 570 924 591 q 836 436 903 492 q 689 380 768 380 l 590 380 l 569 282 l 635 282 l 619 207 l 465 207 q 629 156 532 156 m 504 -22 q 198 104 314 -22 l 286 104 q 192 282 215 180 l 126 282 q 117 373 117 326 q 129 484 117 427 q 193 654 148 574 l 172 654 q 348 855 237 770 l 414 855 q 785 989 587 989 q 1099 855 983 989 l 1033 855 q 1124 654 1107 769 l 1146 654 q 1151 590 1151 623 q 1139 484 1151 538 q 1055 282 1116 376 l 1120 282 q 952 104 1054 180 l 865 104 q 504 -22 694 -22 z "},"¦":{"ha":241,"x_min":-64,"x_max":475,"o":"m 258 332 l 248 282 l 313 282 l 276 104 l 189 104 l 115 -243 l -64 -243 l 10 104 l 98 104 l 135 282 l 69 282 l 80 332 l 258 332 m 132 575 l 149 654 l 127 654 l 170 855 l 235 855 l 297 1150 l 475 1150 l 413 855 l 348 855 l 305 654 l 327 654 l 310 575 l 132 575 z "},"¶":{"ha":845,"x_min":157,"x_max":1066,"o":"m 585 104 l 622 282 l 569 282 l 532 104 l 585 104 m 556 282 l 635 654 l 614 654 l 656 855 l 604 855 l 561 654 l 583 654 l 504 282 l 556 282 m 722 855 l 735 915 l 682 915 l 669 855 l 722 855 m 626 -126 l 448 -126 l 497 104 l 444 104 l 395 -126 l 216 -126 l 266 104 l 353 104 l 391 282 l 326 282 l 344 366 q 210 495 255 408 q 178 635 178 559 l 178 654 l 157 654 q 221 855 161 759 l 287 855 q 322 905 302 881 q 489 1042 392 991 q 689 1093 585 1093 l 1066 1093 l 1028 915 l 913 915 l 900 855 l 835 855 l 792 654 l 814 654 l 734 282 l 800 282 l 763 104 l 675 104 l 626 -126 z "},"£":{"ha":845,"x_min":35,"x_max":909,"o":"m 72 -33 l 35 104 l 123 104 l 117 127 q 206 170 197 163 l 212 170 q 314 282 273 204 l 248 282 q 279 353 265 314 l 109 353 l 140 502 l 309 502 l 309 505 q 298 601 309 529 q 290 651 291 643 l 290 654 l 268 654 q 267 684 267 669 q 326 855 267 774 l 391 855 q 526 961 442 923 q 667 992 594 992 q 873 916 805 992 q 909 855 896 889 l 843 855 q 860 755 860 811 q 848 654 860 709 l 870 654 l 852 564 l 673 564 l 692 654 l 670 654 q 678 720 678 692 q 659 786 678 758 q 563 814 639 814 q 467 774 506 814 q 447 724 447 752 q 449 705 447 715 q 458 654 458 659 l 481 654 q 491 557 491 606 q 488 502 491 530 l 665 502 l 633 353 l 457 353 q 432 282 439 298 l 498 282 q 465 212 483 244 q 585 181 509 208 q 707 156 654 156 q 764 158 755 156 l 848 184 l 857 104 l 770 104 l 777 14 l 689 -14 q 564 -22 659 -22 q 482 -12 520 -22 q 412 9 448 -3 q 301 37 326 37 q 163 7 224 33 l 72 -33 z "},"¤":{"ha":845,"x_min":128,"x_max":922,"o":"m 473 340 q 583 382 532 340 q 645 483 633 423 q 648 515 648 500 q 621 590 648 554 q 534 625 593 625 q 425 584 475 625 q 361 483 374 543 q 358 452 358 467 q 386 376 358 412 q 473 340 414 340 m 899 855 l 872 855 l 888 869 l 899 855 m 746 96 l 663 201 q 500 163 585 163 q 355 202 417 163 l 227 96 l 128 222 l 200 282 l 134 282 l 191 328 q 176 416 176 370 q 256 637 176 534 l 242 654 l 220 654 l 151 743 l 287 855 l 315 855 l 387 764 q 549 804 467 804 q 696 764 634 804 l 806 855 l 833 855 l 922 743 l 814 654 l 836 654 l 817 638 q 831 551 831 597 q 823 483 831 518 q 751 328 806 399 l 787 282 l 852 282 l 899 223 l 746 96 m 381 855 l 353 855 l 370 869 l 381 855 z "},"§":{"ha":845,"x_min":91,"x_max":939,"o":"m 595 389 q 640 394 611 389 q 675 422 656 397 q 681 442 681 432 q 671 469 681 454 q 550 545 649 502 q 414 578 467 578 q 367 573 397 578 q 334 545 351 570 q 326 525 326 534 q 456 422 326 479 q 595 389 541 389 m 351 -126 q 144 -53 212 -126 q 91 101 91 5 l 91 104 l 178 104 l 178 109 q 189 199 178 150 l 195 230 l 373 230 q 359 142 359 168 q 365 104 359 120 l 277 104 q 389 52 294 52 q 597 104 568 52 l 684 104 q 694 136 689 110 q 698 161 698 151 l 698 168 q 692 178 698 173 q 592 208 677 191 q 366 282 454 236 l 301 282 q 143 488 143 366 q 214 654 143 576 l 193 654 l 202 665 q 170 768 170 706 q 184 855 170 813 l 250 855 q 394 1038 284 977 q 676 1093 488 1093 q 883 1021 814 1093 q 939 862 939 960 l 939 855 l 873 855 q 856 741 871 817 l 678 741 q 691 826 691 802 q 688 855 691 842 l 754 855 q 738 886 749 874 q 638 915 711 915 q 522 907 563 915 q 436 871 450 893 q 429 855 434 869 l 363 855 q 353 806 353 829 l 353 800 q 359 789 353 794 q 457 759 372 777 q 626 712 563 738 q 734 654 690 686 l 757 654 q 863 479 863 580 q 782 301 863 384 q 794 282 789 292 l 860 282 q 880 199 880 247 q 864 104 880 149 l 777 104 q 635 -69 741 -9 q 351 -126 539 -126 z "},"ẞ":{"ha":845,"x_min":-1,"x_max":903,"o":"m 460 -24 q 359 18 414 -24 q 294 104 320 47 l 382 104 q 363 152 371 125 l 332 218 l 473 282 l 517 282 l 535 220 q 573 159 549 175 l 591 154 q 687 166 677 154 q 720 252 706 186 q 722 269 722 261 q 720 282 722 276 l 654 282 l 654 288 q 584 355 642 315 q 533 395 558 373 q 481 505 481 442 q 511 599 481 557 q 567 654 530 625 l 545 654 l 570 674 q 629 727 627 716 l 629 730 q 581 785 615 774 q 476 799 540 799 q 374 764 415 799 q 325 686 335 732 l 319 654 l 341 654 l 262 282 l 327 282 l 289 104 l 201 104 l 177 -11 l -1 -11 l 23 104 l 111 104 l 149 282 l 83 282 l 163 654 l 140 654 l 146 686 q 239 855 167 780 l 304 855 q 410 937 351 905 q 567 977 486 977 q 651 973 610 977 q 853 855 800 961 l 787 855 q 811 764 811 810 q 777 654 811 707 l 799 654 q 683 541 764 599 l 674 534 q 709 507 684 525 q 801 425 759 476 q 838 307 838 371 q 837 282 838 294 l 903 282 q 844 109 890 186 l 840 104 l 753 104 q 555 -20 682 -8 q 460 -24 509 -24 m 452 282 l 407 282 l 447 300 l 452 282 z "},"ß":{"ha":845,"x_min":-1,"x_max":903,"o":"m 460 -24 q 359 18 414 -24 q 294 104 320 47 l 382 104 q 363 152 371 125 l 332 218 l 473 282 l 517 282 l 535 220 q 573 159 549 175 l 591 154 q 687 166 677 154 q 720 252 706 186 q 722 269 722 261 q 720 282 722 276 l 654 282 l 654 288 q 584 355 642 315 q 533 395 558 373 q 481 505 481 442 q 511 599 481 557 q 567 654 530 625 l 545 654 l 570 674 q 629 727 627 716 l 629 730 q 581 785 615 774 q 476 799 540 799 q 374 764 415 799 q 325 686 335 732 l 319 654 l 341 654 l 262 282 l 327 282 l 289 104 l 201 104 l 177 -11 l -1 -11 l 23 104 l 111 104 l 149 282 l 83 282 l 163 654 l 140 654 l 146 686 q 239 855 167 780 l 304 855 q 410 937 351 905 q 567 977 486 977 q 651 973 610 977 q 853 855 800 961 l 787 855 q 811 764 811 810 q 777 654 811 707 l 799 654 q 683 541 764 599 l 674 534 q 709 507 684 525 q 801 425 759 476 q 838 307 838 371 q 837 282 838 294 l 903 282 q 844 109 890 186 l 840 104 l 753 104 q 555 -20 682 -8 q 460 -24 509 -24 m 452 282 l 407 282 l 447 300 l 452 282 z "},"∕":{"ha":484,"x_min":-69,"x_max":758,"o":"m 121 -11 l -69 -11 l -3 104 l 85 104 l 189 282 l 123 282 l 338 654 l 317 654 l 433 855 l 498 855 l 568 977 l 758 977 l 688 855 l 622 855 l 506 654 l 528 654 l 313 282 l 378 282 l 275 104 l 187 104 l 121 -11 z "},"�":{"ha":724,"x_min":69,"x_max":824,"o":"m 400 60 l 410 104 l 497 104 l 516 196 l 380 196 l 361 104 l 274 104 l 264 60 l 400 60 m 515 245 l 522 282 l 456 282 l 459 292 l 460 291 q 528 345 463 303 q 629 427 599 389 q 675 551 675 490 q 634 654 675 615 l 612 654 q 507 696 571 696 q 371 654 435 696 l 393 654 q 310 593 376 644 q 369 511 339 552 q 433 560 420 552 q 505 585 467 585 q 537 575 523 585 q 562 526 562 559 q 543 481 562 508 q 481 435 537 471 q 412 386 445 412 q 346 282 361 345 l 412 282 q 404 245 410 275 l 515 245 m 303 -184 l 299 -184 l 175 104 l 262 104 l 184 282 l 119 282 l 69 396 l 291 654 l 269 654 l 441 855 l 507 855 l 612 977 l 616 977 l 669 855 l 604 855 l 690 654 l 712 654 l 824 396 l 726 282 l 791 282 l 638 104 l 551 104 l 303 -184 z "},"◆":{"ha":724,"x_min":69,"x_max":824,"o":"m 303 -184 l 299 -184 l 175 104 l 262 104 l 184 282 l 119 282 l 69 396 l 291 654 l 269 654 l 441 855 l 507 855 l 612 977 l 616 977 l 669 855 l 604 855 l 690 654 l 712 654 l 824 396 l 726 282 l 791 282 l 638 104 l 551 104 l 303 -184 z "},"▯":{"ha":724,"x_min":-98,"x_max":969,"o":"m 515 -7 l 539 104 l 627 104 l 665 282 l 599 282 l 678 654 l 656 654 l 687 800 l 289 800 l 258 654 l 281 654 l 201 282 l 267 282 l 229 104 l 141 104 l 117 -7 l 515 -7 m 656 -184 l -98 -184 l -37 104 l 50 104 l 88 282 l 23 282 l 102 654 l 81 654 l 123 855 l 188 855 l 214 977 l 969 977 l 943 855 l 877 855 l 835 654 l 857 654 l 777 282 l 843 282 l 805 104 l 718 104 l 656 -184 z "},"▮":{"ha":724,"x_min":-98,"x_max":969,"o":"m 656 -184 l -98 -184 l -37 104 l 50 104 l 88 282 l 23 282 l 102 654 l 81 654 l 123 855 l 188 855 l 214 977 l 969 977 l 943 855 l 877 855 l 835 654 l 857 654 l 777 282 l 843 282 l 805 104 l 718 104 l 656 -184 z "},"˗":{"ha":604,"x_min":98,"x_max":661,"o":"m 623 279 l 98 279 l 136 457 l 661 457 l 623 279 z "},"⁄":{"ha":484,"x_min":-69,"x_max":758,"o":"m 121 -11 l -69 -11 l -3 104 l 85 104 l 189 282 l 123 282 l 338 654 l 317 654 l 433 855 l 498 855 l 568 977 l 758 977 l 688 855 l 622 855 l 506 654 l 528 654 l 313 282 l 378 282 l 275 104 l 187 104 l 121 -11 z "},"′":{"ha":282,"x_min":181,"x_max":504,"o":"m 304 668 l 196 668 l 181 855 l 246 855 l 286 1042 l 504 1042 l 464 855 l 399 855 l 304 668 z "},"″":{"ha":526,"x_min":187,"x_max":743,"o":"m 543 668 l 434 668 l 420 855 l 405 855 l 311 668 l 201 668 l 187 855 l 253 855 l 292 1042 l 510 1042 l 471 855 l 486 855 l 525 1042 l 743 1042 l 703 855 l 637 855 l 543 668 z "}," ":{"ha":362,"x_min":0,"x_max":0,"o":""},"™":{"ha":967,"x_min":231,"x_max":1126,"o":"m 972 452 l 851 452 l 885 614 l 791 452 l 686 452 l 659 614 l 625 452 l 505 452 l 548 655 l 526 655 l 568 856 l 634 856 l 635 857 l 496 857 l 495 856 l 429 856 l 387 655 l 408 655 l 366 452 l 245 452 l 288 655 l 266 655 l 309 856 l 374 856 l 375 857 l 231 857 l 256 978 l 772 978 l 792 856 l 727 856 l 760 655 l 877 856 l 943 856 l 1014 978 l 1126 978 l 1101 856 l 1035 856 l 992 655 l 1015 655 l 972 452 z "},"÷":{"ha":604,"x_min":98,"x_max":661,"o":"m 623 279 l 98 279 l 136 457 l 661 457 l 623 279 m 397 48 l 181 48 l 193 104 l 281 104 l 315 264 l 530 264 l 496 104 l 409 104 l 397 48 m 509 472 l 293 472 l 332 654 l 311 654 l 317 688 l 533 688 l 526 654 l 548 654 l 509 472 z "},"‰":{"ha":1398,"x_min":160,"x_max":1442,"o":"m 1213 159 q 1238 190 1225 168 q 1257 241 1251 212 q 1261 275 1261 260 l 1261 283 l 1218 283 q 1200 204 1200 244 l 1201 191 q 1213 159 1206 167 m 376 637 q 393 655 385 643 l 372 655 q 399 720 391 681 q 403 754 403 739 q 390 802 403 788 q 346 720 358 779 q 342 684 342 701 q 346 655 342 668 l 368 655 q 376 637 372 642 m 568 629 l 583 655 l 579 655 q 568 629 574 642 m 792 283 q 779 324 791 311 q 749 283 762 311 l 792 283 m 810 159 q 835 191 821 167 q 854 241 848 212 q 858 275 858 260 l 858 283 l 814 283 q 797 206 797 245 q 810 159 797 173 m 1026 104 q 1018 172 1018 136 l 1019 195 q 973 104 1002 146 l 1026 104 m 1196 283 q 1183 324 1194 311 q 1152 283 1166 311 l 1196 283 m 1088 -21 q 956 58 1000 -21 q 939 104 945 80 l 886 104 q 849 58 869 80 q 684 -21 772 -21 q 553 58 596 -21 q 535 104 541 80 l 623 104 q 614 169 614 135 q 634 283 614 224 l 623 283 l 520 104 l 433 104 l 366 -10 l 176 -10 l 242 104 l 330 104 l 433 283 l 368 283 l 541 583 q 504 536 524 558 q 338 456 426 456 q 208 536 250 456 q 182 646 182 585 l 182 655 l 160 655 q 168 720 160 686 q 226 856 184 795 l 291 856 q 328 902 307 880 q 494 982 405 982 q 625 902 582 982 q 643 856 636 880 l 577 856 q 585 791 585 826 q 557 655 585 725 l 562 655 l 677 856 l 743 856 l 814 978 l 1003 978 l 932 856 l 867 856 l 751 655 l 773 655 l 557 283 l 568 283 q 652 425 595 364 q 817 504 729 504 q 949 425 905 504 q 975 313 975 375 l 974 288 q 1056 425 1000 366 q 1221 504 1133 504 q 1352 425 1309 504 q 1378 316 1378 377 q 1376 283 1378 300 l 1442 283 q 1377 104 1432 184 l 1290 104 q 1253 58 1273 80 q 1088 -21 1176 -21 z "},"Ā":{"ha":845,"x_min":-55,"x_max":920,"o":"m 616 399 l 575 654 l 553 654 l 547 692 l 526 654 l 547 654 l 397 399 l 616 399 m 883 1001 l 474 1001 l 505 1150 l 914 1150 l 883 1001 m 851 -11 l 661 -11 l 643 104 l 730 104 l 711 220 l 358 220 l 290 104 l 203 104 l 136 -11 l -55 -11 l 12 104 l 100 104 l 204 282 l 138 282 l 357 654 l 335 654 l 453 855 l 519 855 l 590 977 l 757 977 l 777 855 l 711 855 l 743 654 l 766 654 l 825 282 l 890 282 l 920 104 l 833 104 l 851 -11 z "},"ā":{"ha":845,"x_min":-55,"x_max":920,"o":"m 616 399 l 575 654 l 553 654 l 547 692 l 526 654 l 547 654 l 397 399 l 616 399 m 883 1001 l 474 1001 l 505 1150 l 914 1150 l 883 1001 m 851 -11 l 661 -11 l 643 104 l 730 104 l 711 220 l 358 220 l 290 104 l 203 104 l 136 -11 l -55 -11 l 12 104 l 100 104 l 204 282 l 138 282 l 357 654 l 335 654 l 453 855 l 519 855 l 590 977 l 757 977 l 777 855 l 711 855 l 743 654 l 766 654 l 825 282 l 890 282 l 920 104 l 833 104 l 851 -11 z "},"Č":{"ha":845,"x_min":89,"x_max":971,"o":"m 418 -24 q 149 104 246 -21 l 237 104 q 161 283 177 180 l 95 283 q 89 362 89 321 q 164 655 89 511 l 142 655 q 303 856 203 770 l 368 856 q 652 987 501 969 l 629 987 l 501 1151 l 705 1151 l 728 1120 l 766 1151 l 970 1151 l 771 987 l 745 987 q 971 856 886 969 l 905 856 l 930 823 l 772 704 l 756 726 q 595 812 697 811 q 455 768 523 810 q 334 655 387 726 l 356 655 l 353 650 q 279 483 299 574 q 270 399 270 439 q 293 283 270 336 l 359 283 q 420 197 380 231 q 544 154 471 155 q 741 240 646 155 l 766 263 l 875 145 l 828 104 l 741 104 q 418 -24 589 -21 z "},"č":{"ha":845,"x_min":89,"x_max":971,"o":"m 418 -24 q 149 104 246 -21 l 237 104 q 161 283 177 180 l 95 283 q 89 362 89 321 q 164 655 89 511 l 142 655 q 303 856 203 770 l 368 856 q 652 987 501 969 l 629 987 l 501 1151 l 705 1151 l 728 1120 l 766 1151 l 970 1151 l 771 987 l 745 987 q 971 856 886 969 l 905 856 l 930 823 l 772 704 l 756 726 q 595 812 697 811 q 455 768 523 810 q 334 655 387 726 l 356 655 l 353 650 q 279 483 299 574 q 270 399 270 439 q 293 283 270 336 l 359 283 q 420 197 380 231 q 544 154 471 155 q 741 240 646 155 l 766 263 l 875 145 l 828 104 l 741 104 q 418 -24 589 -21 z "},"Ē":{"ha":845,"x_min":-1,"x_max":1028,"o":"m 861 1001 l 452 1001 l 484 1150 l 892 1150 l 861 1001 m 753 -11 l -1 -11 l 23 104 l 111 104 l 148 282 l 82 282 l 161 654 l 140 654 l 182 855 l 248 855 l 274 977 l 1028 977 l 1002 855 l 937 855 l 925 798 l 348 798 l 317 654 l 339 654 l 321 572 l 783 572 l 745 394 l 283 394 l 260 282 l 326 282 l 301 167 l 878 167 l 865 104 l 778 104 l 753 -11 z "},"ē":{"ha":845,"x_min":-1,"x_max":1028,"o":"m 861 1001 l 452 1001 l 484 1150 l 892 1150 l 861 1001 m 753 -11 l -1 -11 l 23 104 l 111 104 l 148 282 l 82 282 l 161 654 l 140 654 l 182 855 l 248 855 l 274 977 l 1028 977 l 1002 855 l 937 855 l 925 798 l 348 798 l 317 654 l 339 654 l 321 572 l 783 572 l 745 394 l 283 394 l 260 282 l 326 282 l 301 167 l 878 167 l 865 104 l 778 104 l 753 -11 z "},"Ģ":{"ha":905,"x_min":91,"x_max":998,"o":"m 262 -243 l 113 -242 l 194 -94 l 251 -94 l 296 -12 q 136 104 197 16 l 224 104 q 159 282 171 178 l 94 282 q 91 340 91 310 q 107 482 91 407 q 165 654 127 574 l 143 654 q 291 855 199 771 l 357 855 q 675 989 501 989 q 848 966 778 989 q 962 895 918 944 l 998 855 l 932 855 l 949 835 l 802 703 l 749 763 q 721 785 739 774 q 668 803 703 795 q 572 811 633 811 q 442 770 504 811 q 332 655 380 729 l 332 654 l 354 654 q 286 482 306 579 q 273 378 273 427 q 288 282 273 326 l 353 282 q 408 194 371 227 q 519 153 452 153 q 706 212 631 153 q 769 282 745 241 l 703 282 q 731 349 721 313 l 741 395 l 477 395 l 515 572 l 957 572 l 895 282 l 961 282 l 923 104 l 836 104 l 811 -10 l 633 -10 l 643 37 q 526 -9 587 7 q 544 -68 544 -35 q 541 -95 544 -81 q 262 -243 509 -243 z "},"ģ":{"ha":905,"x_min":91,"x_max":998,"o":"m 262 -243 l 113 -242 l 194 -94 l 251 -94 l 296 -12 q 136 104 197 16 l 224 104 q 159 282 171 178 l 94 282 q 91 340 91 310 q 107 482 91 407 q 165 654 127 574 l 143 654 q 291 855 199 771 l 357 855 q 675 989 501 989 q 848 966 778 989 q 962 895 918 944 l 998 855 l 932 855 l 949 835 l 802 703 l 749 763 q 721 785 739 774 q 668 803 703 795 q 572 811 633 811 q 442 770 504 811 q 332 655 380 729 l 332 654 l 354 654 q 286 482 306 579 q 273 378 273 427 q 288 282 273 326 l 353 282 q 408 194 371 227 q 519 153 452 153 q 706 212 631 153 q 769 282 745 241 l 703 282 q 731 349 721 313 l 741 395 l 477 395 l 515 572 l 957 572 l 895 282 l 961 282 l 923 104 l 836 104 l 811 -10 l 633 -10 l 643 37 q 526 -9 587 7 q 544 -68 544 -35 q 541 -95 544 -81 q 262 -243 509 -243 z "},"Ī":{"ha":362,"x_min":24,"x_max":630,"o":"m 202 -11 l 24 -11 l 49 104 l 136 104 l 174 282 l 109 282 l 189 654 l 166 654 l 209 855 l 275 855 l 300 977 l 478 977 l 452 855 l 387 855 l 344 654 l 366 654 l 286 282 l 352 282 l 314 104 l 227 104 l 202 -11 m 598 1001 l 189 1001 l 221 1150 l 630 1150 l 598 1001 z "},"ī":{"ha":362,"x_min":24,"x_max":630,"o":"m 202 -11 l 24 -11 l 49 104 l 136 104 l 174 282 l 109 282 l 189 654 l 166 654 l 209 855 l 275 855 l 300 977 l 478 977 l 452 855 l 387 855 l 344 654 l 366 654 l 286 282 l 352 282 l 314 104 l 227 104 l 202 -11 m 598 1001 l 189 1001 l 221 1150 l 630 1150 l 598 1001 z "},"Ķ":{"ha":845,"x_min":-12,"x_max":1087,"o":"m 195 -243 l 46 -242 l 127 -94 l 184 -94 l 265 53 q 357 48 335 53 q 477 -67 477 22 q 475 -95 477 -81 q 195 -243 443 -243 m 791 -11 l 566 -11 l 501 104 l 589 104 l 488 282 l 422 282 l 353 406 l 260 330 l 250 282 l 316 282 l 278 104 l 191 104 l 166 -11 l -12 -11 l 12 104 l 100 104 l 138 282 l 72 282 l 151 654 l 130 654 l 172 855 l 238 855 l 264 977 l 442 977 l 416 855 l 351 855 l 308 654 l 330 654 l 314 583 l 401 654 l 380 654 l 623 855 l 688 855 l 835 977 l 1087 977 l 940 855 l 874 855 l 631 654 l 653 654 l 506 533 l 648 282 l 713 282 l 814 104 l 727 104 l 791 -11 z "},"ķ":{"ha":845,"x_min":-12,"x_max":1087,"o":"m 195 -243 l 46 -242 l 127 -94 l 184 -94 l 265 53 q 357 48 335 53 q 477 -67 477 22 q 475 -95 477 -81 q 195 -243 443 -243 m 791 -11 l 566 -11 l 501 104 l 589 104 l 488 282 l 422 282 l 353 406 l 260 330 l 250 282 l 316 282 l 278 104 l 191 104 l 166 -11 l -12 -11 l 12 104 l 100 104 l 138 282 l 72 282 l 151 654 l 130 654 l 172 855 l 238 855 l 264 977 l 442 977 l 416 855 l 351 855 l 308 654 l 330 654 l 314 583 l 401 654 l 380 654 l 623 855 l 688 855 l 835 977 l 1087 977 l 940 855 l 874 855 l 631 654 l 653 654 l 506 533 l 648 282 l 713 282 l 814 104 l 727 104 l 791 -11 z "},"Ļ":{"ha":724,"x_min":-3,"x_max":761,"o":"m 205 -243 l 55 -242 l 137 -94 l 194 -94 l 239 -11 l -3 -11 l 21 104 l 109 104 l 146 282 l 80 282 l 159 654 l 138 654 l 180 855 l 246 855 l 272 977 l 450 977 l 424 855 l 359 855 l 316 654 l 338 654 l 258 282 l 324 282 l 300 167 l 761 167 l 748 104 l 661 104 l 636 -11 l 471 -11 q 487 -67 487 -36 q 484 -95 487 -81 q 205 -243 452 -243 z "},"ļ":{"ha":724,"x_min":-3,"x_max":761,"o":"m 205 -243 l 55 -242 l 137 -94 l 194 -94 l 239 -11 l -3 -11 l 21 104 l 109 104 l 146 282 l 80 282 l 159 654 l 138 654 l 180 855 l 246 855 l 272 977 l 450 977 l 424 855 l 359 855 l 316 654 l 338 654 l 258 282 l 324 282 l 300 167 l 761 167 l 748 104 l 661 104 l 636 -11 l 471 -11 q 487 -67 487 -36 q 484 -95 487 -81 q 205 -243 452 -243 z "},"Ņ":{"ha":845,"x_min":0,"x_max":1030,"o":"m 228 -243 l 78 -242 l 160 -94 l 217 -94 l 297 53 q 389 48 368 53 q 509 -67 509 22 q 507 -95 509 -81 q 228 -243 475 -243 m 755 -11 l 581 -11 l 534 104 l 621 104 l 547 282 l 481 282 l 336 635 l 261 282 l 327 282 l 290 104 l 202 104 l 178 -11 l 0 -11 l 24 104 l 112 104 l 149 282 l 84 282 l 163 654 l 141 654 l 184 855 l 250 855 l 275 977 l 449 977 l 499 855 l 434 855 l 517 654 l 538 654 l 672 331 l 741 654 l 718 654 l 761 855 l 827 855 l 852 977 l 1030 977 l 1004 855 l 939 855 l 896 654 l 918 654 l 838 282 l 904 282 l 867 104 l 779 104 l 755 -11 z "},"ņ":{"ha":845,"x_min":0,"x_max":1030,"o":"m 228 -243 l 78 -242 l 160 -94 l 217 -94 l 297 53 q 389 48 368 53 q 509 -67 509 22 q 507 -95 509 -81 q 228 -243 475 -243 m 755 -11 l 581 -11 l 534 104 l 621 104 l 547 282 l 481 282 l 336 635 l 261 282 l 327 282 l 290 104 l 202 104 l 178 -11 l 0 -11 l 24 104 l 112 104 l 149 282 l 84 282 l 163 654 l 141 654 l 184 855 l 250 855 l 275 977 l 449 977 l 499 855 l 434 855 l 517 654 l 538 654 l 672 331 l 741 654 l 718 654 l 761 855 l 827 855 l 852 977 l 1030 977 l 1004 855 l 939 855 l 896 654 l 918 654 l 838 282 l 904 282 l 867 104 l 779 104 l 755 -11 z "},"Š":{"ha":845,"x_min":85,"x_max":951,"o":"m 375 -22 q 171 27 257 -22 q 85 104 117 58 l 172 104 q 144 162 154 131 l 119 241 l 207 283 l 141 283 l 228 324 l 242 283 l 307 283 l 319 245 q 380 182 332 207 q 500 156 431 156 q 612 175 559 156 q 698 222 664 193 q 734 283 732 250 l 669 283 l 669 288 q 655 329 669 310 q 589 376 634 358 q 486 395 545 395 q 301 433 380 395 q 183 538 222 471 q 156 640 156 585 l 157 655 l 135 655 q 227 847 143 762 l 237 856 l 302 856 q 455 952 366 916 q 597 987 523 979 l 584 987 l 456 1151 l 659 1151 l 683 1120 l 720 1151 l 924 1151 l 726 987 l 713 987 q 859 941 795 978 q 951 856 918 907 l 885 856 q 909 806 900 832 l 933 726 l 783 655 l 804 655 l 779 643 l 776 655 l 754 655 l 734 723 q 673 785 721 760 q 552 812 621 812 q 441 793 493 812 q 354 746 389 774 q 317 679 317 714 q 322 655 317 667 l 344 655 q 418 592 359 616 q 524 573 465 573 q 707 534 629 573 q 825 430 786 496 q 852 328 852 382 q 848 283 852 306 l 913 283 l 911 275 q 825 121 893 190 l 806 104 l 719 104 q 575 16 657 50 q 375 -22 480 -22 z "},"š":{"ha":845,"x_min":85,"x_max":951,"o":"m 375 -22 q 171 27 257 -22 q 85 104 117 58 l 172 104 q 144 162 154 131 l 119 241 l 207 283 l 141 283 l 228 324 l 242 283 l 307 283 l 319 245 q 380 182 332 207 q 500 156 431 156 q 612 175 559 156 q 698 222 664 193 q 734 283 732 250 l 669 283 l 669 288 q 655 329 669 310 q 589 376 634 358 q 486 395 545 395 q 301 433 380 395 q 183 538 222 471 q 156 640 156 585 l 157 655 l 135 655 q 227 847 143 762 l 237 856 l 302 856 q 455 952 366 916 q 597 987 523 979 l 584 987 l 456 1151 l 659 1151 l 683 1120 l 720 1151 l 924 1151 l 726 987 l 713 987 q 859 941 795 978 q 951 856 918 907 l 885 856 q 909 806 900 832 l 933 726 l 783 655 l 804 655 l 779 643 l 776 655 l 754 655 l 734 723 q 673 785 721 760 q 552 812 621 812 q 441 793 493 812 q 354 746 389 774 q 317 679 317 714 q 322 655 317 667 l 344 655 q 418 592 359 616 q 524 573 465 573 q 707 534 629 573 q 825 430 786 496 q 852 328 852 382 q 848 283 852 306 l 913 283 l 911 275 q 825 121 893 190 l 806 104 l 719 104 q 575 16 657 50 q 375 -22 480 -22 z "},"Ū":{"ha":845,"x_min":94,"x_max":1031,"o":"m 376 -22 q 190 26 265 -22 q 114 104 142 58 l 201 104 q 158 264 158 172 l 159 283 l 94 283 q 104 365 95 322 l 165 655 l 144 655 l 186 856 l 252 856 l 277 978 l 455 978 l 429 856 l 363 856 l 321 655 l 343 655 l 281 365 q 275 302 275 331 q 275 283 275 292 l 341 283 q 367 210 344 240 q 502 156 406 156 q 660 210 597 156 q 717 283 694 240 l 651 283 q 679 365 669 319 l 741 655 l 719 655 l 762 856 l 827 856 l 853 978 l 1031 978 l 1006 856 l 940 856 l 897 655 l 919 655 l 857 365 q 833 283 848 322 l 899 283 q 781 104 859 179 l 693 104 q 583 26 644 58 q 376 -22 488 -22 m 866 1001 l 457 1001 l 489 1150 l 898 1150 l 866 1001 z "},"ū":{"ha":845,"x_min":94,"x_max":1031,"o":"m 376 -22 q 190 26 265 -22 q 114 104 142 58 l 201 104 q 158 264 158 172 l 159 283 l 94 283 q 104 365 95 322 l 165 655 l 144 655 l 186 856 l 252 856 l 277 978 l 455 978 l 429 856 l 363 856 l 321 655 l 343 655 l 281 365 q 275 302 275 331 q 275 283 275 292 l 341 283 q 367 210 344 240 q 502 156 406 156 q 660 210 597 156 q 717 283 694 240 l 651 283 q 679 365 669 319 l 741 655 l 719 655 l 762 856 l 827 856 l 853 978 l 1031 978 l 1006 856 l 940 856 l 897 655 l 919 655 l 857 365 q 833 283 848 322 l 899 283 q 781 104 859 179 l 693 104 q 583 26 644 58 q 376 -22 488 -22 m 866 1001 l 457 1001 l 489 1150 l 898 1150 l 866 1001 z "},"Ž":{"ha":845,"x_min":-1,"x_max":1029,"o":"m 753 -11 l -1 -11 l 23 104 l 111 104 l 126 178 l 237 282 l 171 282 l 568 654 l 547 654 l 701 799 l 170 799 l 182 855 l 248 855 l 274 977 l 1029 977 l 1003 855 l 937 855 l 923 787 l 781 654 l 803 654 l 405 282 l 471 282 l 349 168 l 879 168 l 865 104 l 778 104 l 753 -11 m 724 987 l 583 987 l 454 1150 l 657 1150 l 682 1120 l 718 1150 l 922 1150 l 724 987 z "},"ž":{"ha":845,"x_min":-1,"x_max":1029,"o":"m 753 -11 l -1 -11 l 23 104 l 111 104 l 126 178 l 237 282 l 171 282 l 568 654 l 547 654 l 701 799 l 170 799 l 182 855 l 248 855 l 274 977 l 1029 977 l 1003 855 l 937 855 l 923 787 l 781 654 l 803 654 l 405 282 l 471 282 l 349 168 l 879 168 l 865 104 l 778 104 l 753 -11 m 724 987 l 583 987 l 454 1150 l 657 1150 l 682 1120 l 718 1150 l 922 1150 l 724 987 z "},"Ø":{"ha":966,"x_min":-21,"x_max":1192,"o":"m 570 155 q 711 198 643 155 q 808 282 765 231 l 743 282 q 842 484 819 370 q 852 567 852 527 q 847 621 852 594 l 438 282 l 504 282 l 427 218 q 570 155 482 155 m 302 344 l 678 654 l 656 654 l 768 747 q 623 811 710 811 q 481 768 549 811 q 361 654 412 726 l 383 654 l 379 650 q 307 484 326 575 q 297 399 297 439 q 302 344 297 370 m 445 -22 q 187 93 286 -22 l 61 -11 l -21 95 l -11 104 l 77 104 l 207 211 q 189 282 195 246 l 123 282 q 115 364 115 321 q 129 484 115 421 q 191 654 148 574 l 170 654 q 330 855 230 770 l 395 855 q 726 989 551 989 q 986 873 888 989 l 1109 975 l 1192 869 l 1175 855 l 1110 855 l 987 754 q 1010 654 1004 709 l 1031 654 q 1034 605 1034 630 q 1021 484 1034 546 q 941 282 998 376 l 1007 282 q 854 104 946 180 l 766 104 q 445 -22 613 -22 z "},"ø":{"ha":966,"x_min":-21,"x_max":1192,"o":"m 570 155 q 711 198 643 155 q 808 282 765 231 l 743 282 q 842 484 819 370 q 852 567 852 527 q 847 621 852 594 l 438 282 l 504 282 l 427 218 q 570 155 482 155 m 302 344 l 678 654 l 656 654 l 768 747 q 623 811 710 811 q 481 768 549 811 q 361 654 412 726 l 383 654 l 379 650 q 307 484 326 575 q 297 399 297 439 q 302 344 297 370 m 445 -22 q 187 93 286 -22 l 61 -11 l -21 95 l -11 104 l 77 104 l 207 211 q 189 282 195 246 l 123 282 q 115 364 115 321 q 129 484 115 421 q 191 654 148 574 l 170 654 q 330 855 230 770 l 395 855 q 726 989 551 989 q 986 873 888 989 l 1109 975 l 1192 869 l 1175 855 l 1110 855 l 987 754 q 1010 654 1004 709 l 1031 654 q 1034 605 1034 630 q 1021 484 1034 546 q 941 282 998 376 l 1007 282 q 854 104 946 180 l 766 104 q 445 -22 613 -22 z "},"Æ":{"ha":1147,"x_min":-68,"x_max":1329,"o":"m 578 399 l 633 654 l 610 654 l 641 798 l 597 798 l 513 654 l 534 654 l 385 399 l 578 399 m 1055 -11 l 469 -11 l 494 104 l 581 104 l 606 220 l 345 220 l 277 104 l 190 104 l 122 -11 l -68 -11 l -1 104 l 87 104 l 191 282 l 125 282 l 345 654 l 322 654 l 440 855 l 506 855 l 577 977 l 1329 977 l 1303 855 l 1238 855 l 1226 798 l 819 798 l 788 654 l 810 654 l 792 572 l 1084 572 l 1046 394 l 754 394 l 730 282 l 796 282 l 772 167 l 1179 167 l 1166 104 l 1079 104 l 1055 -11 z "},"æ":{"ha":1147,"x_min":-68,"x_max":1329,"o":"m 578 399 l 633 654 l 610 654 l 641 798 l 597 798 l 513 654 l 534 654 l 385 399 l 578 399 m 1055 -11 l 469 -11 l 494 104 l 581 104 l 606 220 l 345 220 l 277 104 l 190 104 l 122 -11 l -68 -11 l -1 104 l 87 104 l 191 282 l 125 282 l 345 654 l 322 654 l 440 855 l 506 855 l 577 977 l 1329 977 l 1303 855 l 1238 855 l 1226 798 l 819 798 l 788 654 l 810 654 l 792 572 l 1084 572 l 1046 394 l 754 394 l 730 282 l 796 282 l 772 167 l 1179 167 l 1166 104 l 1079 104 l 1055 -11 z "},"Œ":{"ha":1208,"x_min":101,"x_max":1372,"o":"m 556 155 q 636 169 597 155 l 661 282 l 595 282 l 674 654 l 652 654 l 682 797 q 608 811 649 811 q 466 768 534 811 q 347 654 398 726 l 368 654 l 364 650 q 292 484 312 575 q 283 399 283 439 q 306 282 283 336 l 372 282 q 433 198 393 231 q 556 155 482 155 m 431 -22 q 163 104 262 -22 l 251 104 q 174 282 191 180 l 108 282 q 101 362 101 321 q 115 484 101 420 q 177 654 134 574 l 155 654 q 315 855 216 769 l 381 855 q 711 989 537 989 q 808 977 763 989 l 1372 977 l 1346 855 l 1280 855 l 1268 799 l 861 799 l 830 654 l 852 654 l 834 572 l 1127 572 l 1089 395 l 796 395 l 772 282 l 838 282 l 813 168 l 1221 168 l 1208 104 l 1120 104 l 1096 -11 l 530 -11 q 431 -22 480 -22 z "},"œ":{"ha":1208,"x_min":101,"x_max":1372,"o":"m 556 155 q 636 169 597 155 l 661 282 l 595 282 l 674 654 l 652 654 l 682 797 q 608 811 649 811 q 466 768 534 811 q 347 654 398 726 l 368 654 l 364 650 q 292 484 312 575 q 283 399 283 439 q 306 282 283 336 l 372 282 q 433 198 393 231 q 556 155 482 155 m 431 -22 q 163 104 262 -22 l 251 104 q 174 282 191 180 l 108 282 q 101 362 101 321 q 115 484 101 420 q 177 654 134 574 l 155 654 q 315 855 216 769 l 381 855 q 711 989 537 989 q 808 977 763 989 l 1372 977 l 1346 855 l 1280 855 l 1268 799 l 861 799 l 830 654 l 852 654 l 834 572 l 1127 572 l 1089 395 l 796 395 l 772 282 l 838 282 l 813 168 l 1221 168 l 1208 104 l 1120 104 l 1096 -11 l 530 -11 q 431 -22 480 -22 z "},"Ł":{"ha":724,"x_min":-17,"x_max":748,"o":"m 623 -11 l -17 -11 l 7 104 l 95 104 l 133 282 l 67 282 l 77 330 l 16 307 l 50 469 l 112 492 l 146 654 l 125 654 l 168 855 l 233 855 l 258 977 l 437 977 l 411 855 l 346 855 l 303 654 l 325 654 l 306 566 l 494 638 l 460 476 l 271 404 l 245 282 l 311 282 l 286 167 l 748 167 l 734 104 l 647 104 l 623 -11 z "},"ł":{"ha":724,"x_min":-17,"x_max":748,"o":"m 623 -11 l -17 -11 l 7 104 l 95 104 l 133 282 l 67 282 l 77 330 l 16 307 l 50 469 l 112 492 l 146 654 l 125 654 l 168 855 l 233 855 l 258 977 l 437 977 l 411 855 l 346 855 l 303 654 l 325 654 l 306 566 l 494 638 l 460 476 l 271 404 l 245 282 l 311 282 l 286 167 l 748 167 l 734 104 l 647 104 l 623 -11 z "},"Þ":{"ha":845,"x_min":31,"x_max":921,"o":"m 599 370 q 686 403 646 370 q 739 508 739 447 q 716 568 739 539 q 647 596 694 596 l 361 596 l 313 370 l 599 370 m 210 -11 l 31 -11 l 56 104 l 143 104 l 181 282 l 115 282 l 195 654 l 173 654 l 216 855 l 281 855 l 307 977 l 485 977 l 459 855 l 394 855 l 376 774 l 663 774 q 802 734 743 774 q 873 654 847 703 l 895 654 q 921 546 921 605 q 914 483 921 515 q 791 282 889 366 l 857 282 q 626 191 751 191 l 339 191 l 321 104 l 234 104 l 210 -11 z "},"þ":{"ha":845,"x_min":31,"x_max":921,"o":"m 599 370 q 686 403 646 370 q 739 508 739 447 q 716 568 739 539 q 647 596 694 596 l 361 596 l 313 370 l 599 370 m 210 -11 l 31 -11 l 56 104 l 143 104 l 181 282 l 115 282 l 195 654 l 173 654 l 216 855 l 281 855 l 307 977 l 485 977 l 459 855 l 394 855 l 376 774 l 663 774 q 802 734 743 774 q 873 654 847 703 l 895 654 q 921 546 921 605 q 914 483 921 515 q 791 282 889 366 l 857 282 q 626 191 751 191 l 339 191 l 321 104 l 234 104 l 210 -11 z "},"×":{"ha":604,"x_min":119,"x_max":634,"o":"m 238 119 l 138 245 l 184 283 l 119 283 l 222 368 l 125 491 l 277 616 l 374 494 l 523 616 l 621 491 l 473 368 l 539 283 l 605 283 l 634 245 l 483 120 l 387 242 l 238 119 z "},"₽":{"ha":845,"x_min":20,"x_max":970,"o":"m 630 572 q 717 606 677 572 q 756 654 743 627 l 734 654 q 747 711 747 682 q 725 770 747 742 q 656 799 703 799 l 370 799 l 340 654 l 361 654 l 344 572 l 630 572 m 198 -11 l 20 -11 l 44 104 l 132 104 l 150 191 l 93 191 l 113 282 l 47 282 l 60 340 l 117 340 l 128 394 l 71 394 l 109 572 l 166 572 l 184 654 l 161 654 l 203 855 l 269 855 l 296 977 l 760 977 q 898 937 840 977 q 970 855 945 905 l 904 855 l 905 854 q 930 749 930 806 q 916 654 930 708 l 937 654 q 874 538 918 592 q 747 433 821 473 q 592 394 672 394 l 306 394 l 294 340 l 750 340 l 738 282 l 804 282 l 784 191 l 328 191 l 310 104 l 222 104 l 198 -11 z "},"Ð":{"ha":845,"x_min":4,"x_max":899,"o":"m 449 165 q 673 282 570 165 l 607 282 q 708 482 684 368 q 717 562 717 524 q 705 649 717 615 l 703 654 l 681 654 q 614 758 661 718 q 496 799 566 799 l 354 799 l 323 654 l 345 654 l 325 558 l 580 558 l 548 409 l 293 409 l 266 282 l 332 282 l 307 165 l 449 165 m 324 -11 l 4 -11 l 28 104 l 116 104 l 154 282 l 88 282 l 115 409 l 60 409 l 92 558 l 147 558 l 168 654 l 146 654 l 189 855 l 254 855 l 280 977 l 600 977 q 860 855 763 977 l 794 855 q 874 654 861 771 l 896 654 q 899 598 899 627 q 886 482 899 542 q 806 282 863 375 l 872 282 q 714 104 810 178 l 627 104 q 324 -11 482 -11 z "},"ð":{"ha":845,"x_min":4,"x_max":899,"o":"m 449 165 q 673 282 570 165 l 607 282 q 708 482 684 368 q 717 562 717 524 q 705 649 717 615 l 703 654 l 681 654 q 614 758 661 718 q 496 799 566 799 l 354 799 l 323 654 l 345 654 l 325 558 l 580 558 l 548 409 l 293 409 l 266 282 l 332 282 l 307 165 l 449 165 m 324 -11 l 4 -11 l 28 104 l 116 104 l 154 282 l 88 282 l 115 409 l 60 409 l 92 558 l 147 558 l 168 654 l 146 654 l 189 855 l 254 855 l 280 977 l 600 977 q 860 855 763 977 l 794 855 q 874 654 861 771 l 896 654 q 899 598 899 627 q 886 482 899 542 q 806 282 863 375 l 872 282 q 714 104 810 178 l 627 104 q 324 -11 482 -11 z "},"Đ":{"ha":845,"x_min":4,"x_max":899,"o":"m 449 165 q 673 282 570 165 l 607 282 q 708 482 684 368 q 717 562 717 524 q 705 649 717 615 l 703 654 l 681 654 q 614 758 661 718 q 496 799 566 799 l 354 799 l 323 654 l 345 654 l 325 558 l 580 558 l 548 409 l 293 409 l 266 282 l 332 282 l 307 165 l 449 165 m 324 -11 l 4 -11 l 28 104 l 116 104 l 154 282 l 88 282 l 115 409 l 60 409 l 92 558 l 147 558 l 168 654 l 146 654 l 189 855 l 254 855 l 280 977 l 600 977 q 860 855 763 977 l 794 855 q 874 654 861 771 l 896 654 q 899 598 899 627 q 886 482 899 542 q 806 282 863 375 l 872 282 q 714 104 810 178 l 627 104 q 324 -11 482 -11 z "},"đ":{"ha":845,"x_min":4,"x_max":899,"o":"m 449 165 q 673 282 570 165 l 607 282 q 708 482 684 368 q 717 562 717 524 q 705 649 717 615 l 703 654 l 681 654 q 614 758 661 718 q 496 799 566 799 l 354 799 l 323 654 l 345 654 l 325 558 l 580 558 l 548 409 l 293 409 l 266 282 l 332 282 l 307 165 l 449 165 m 324 -11 l 4 -11 l 28 104 l 116 104 l 154 282 l 88 282 l 115 409 l 60 409 l 92 558 l 147 558 l 168 654 l 146 654 l 189 855 l 254 855 l 280 977 l 600 977 q 860 855 763 977 l 794 855 q 874 654 861 771 l 896 654 q 899 598 899 627 q 886 482 899 542 q 806 282 863 375 l 872 282 q 714 104 810 178 l 627 104 q 324 -11 482 -11 z "},"Ɖ":{"ha":845,"x_min":4,"x_max":899,"o":"m 449 165 q 673 282 570 165 l 607 282 q 708 482 684 368 q 717 562 717 524 q 705 649 717 615 l 703 654 l 681 654 q 614 758 661 718 q 496 799 566 799 l 354 799 l 323 654 l 345 654 l 325 558 l 580 558 l 548 409 l 293 409 l 266 282 l 332 282 l 307 165 l 449 165 m 324 -11 l 4 -11 l 28 104 l 116 104 l 154 282 l 88 282 l 115 409 l 60 409 l 92 558 l 147 558 l 168 654 l 146 654 l 189 855 l 254 855 l 280 977 l 600 977 q 860 855 763 977 l 794 855 q 874 654 861 771 l 896 654 q 899 598 899 627 q 886 482 899 542 q 806 282 863 375 l 872 282 q 714 104 810 178 l 627 104 q 324 -11 482 -11 z "},"ɖ":{"ha":845,"x_min":4,"x_max":899,"o":"m 449 165 q 673 282 570 165 l 607 282 q 708 482 684 368 q 717 562 717 524 q 705 649 717 615 l 703 654 l 681 654 q 614 758 661 718 q 496 799 566 799 l 354 799 l 323 654 l 345 654 l 325 558 l 580 558 l 548 409 l 293 409 l 266 282 l 332 282 l 307 165 l 449 165 m 324 -11 l 4 -11 l 28 104 l 116 104 l 154 282 l 88 282 l 115 409 l 60 409 l 92 558 l 147 558 l 168 654 l 146 654 l 189 855 l 254 855 l 280 977 l 600 977 q 860 855 763 977 l 794 855 q 874 654 861 771 l 896 654 q 899 598 899 627 q 886 482 899 542 q 806 282 863 375 l 872 282 q 714 104 810 178 l 627 104 q 324 -11 482 -11 z "},"Ç":{"ha":845,"x_min":87,"x_max":970,"o":"m 253 -243 l 104 -242 l 185 -94 l 242 -94 l 292 -3 q 149 104 206 29 l 236 104 q 160 282 177 179 l 94 282 q 87 361 87 321 q 101 482 87 420 q 164 654 120 573 l 142 654 q 302 855 203 770 l 368 855 q 699 989 521 986 q 970 855 871 986 l 905 855 l 929 822 l 772 703 l 755 726 q 595 811 696 810 q 454 768 522 810 q 334 654 386 726 l 356 654 q 279 482 300 579 q 270 397 270 437 q 292 282 270 335 l 358 282 q 419 197 379 230 q 543 153 470 155 q 740 239 646 154 l 766 262 l 875 144 q 827 104 840 114 l 741 104 q 520 -12 635 16 q 535 -67 535 -37 q 532 -95 535 -81 q 253 -243 500 -243 z "},"ç":{"ha":845,"x_min":87,"x_max":970,"o":"m 253 -243 l 104 -242 l 185 -94 l 242 -94 l 292 -3 q 149 104 206 29 l 236 104 q 160 282 177 179 l 94 282 q 87 361 87 321 q 101 482 87 420 q 164 654 120 573 l 142 654 q 302 855 203 770 l 368 855 q 699 989 521 986 q 970 855 871 986 l 905 855 l 929 822 l 772 703 l 755 726 q 595 811 696 810 q 454 768 522 810 q 334 654 386 726 l 356 654 q 279 482 300 579 q 270 397 270 437 q 292 282 270 335 l 358 282 q 419 197 379 230 q 543 153 470 155 q 740 239 646 154 l 766 262 l 875 144 q 827 104 840 114 l 741 104 q 520 -12 635 16 q 535 -67 535 -37 q 532 -95 535 -81 q 253 -243 500 -243 z "},"Ą":{"ha":845,"x_min":-56,"x_max":920,"o":"m 616 399 l 575 654 l 553 654 l 547 692 l 526 654 l 547 654 l 397 399 l 616 399 m 668 -206 q 523 -172 551 -206 q 505 -122 505 -150 q 536 -33 505 -85 q 646 78 572 27 l 642 104 l 730 104 l 711 220 l 358 220 l 290 104 l 202 104 l 135 -11 l -56 -11 l 12 104 l 99 104 l 204 282 l 138 282 l 357 654 l 335 654 l 453 855 l 519 855 l 590 977 l 757 977 l 777 855 l 711 855 l 743 654 l 766 654 l 825 282 l 890 282 l 920 104 l 832 104 l 850 -11 l 703 -11 q 690 -20 695 -14 q 659 -64 665 -44 q 697 -75 675 -75 l 762 -69 l 734 -205 l 668 -206 z "},"ą":{"ha":845,"x_min":-56,"x_max":920,"o":"m 616 399 l 575 654 l 553 654 l 547 692 l 526 654 l 547 654 l 397 399 l 616 399 m 668 -206 q 523 -172 551 -206 q 505 -122 505 -150 q 536 -33 505 -85 q 646 78 572 27 l 642 104 l 730 104 l 711 220 l 358 220 l 290 104 l 202 104 l 135 -11 l -56 -11 l 12 104 l 99 104 l 204 282 l 138 282 l 357 654 l 335 654 l 453 855 l 519 855 l 590 977 l 757 977 l 777 855 l 711 855 l 743 654 l 766 654 l 825 282 l 890 282 l 920 104 l 832 104 l 850 -11 l 703 -11 q 690 -20 695 -14 q 659 -64 665 -44 q 697 -75 675 -75 l 762 -69 l 734 -205 l 668 -206 z "},"Ę":{"ha":845,"x_min":-1,"x_max":1029,"o":"m 646 -206 q 502 -172 530 -206 q 484 -121 484 -150 q 530 -11 484 -73 l -1 -11 l 23 104 l 111 104 l 148 282 l 83 282 l 162 654 l 140 654 l 182 855 l 248 855 l 274 977 l 1029 977 l 1003 855 l 938 855 l 926 798 l 348 798 l 317 654 l 340 654 l 322 572 l 784 572 l 746 394 l 284 394 l 260 282 l 326 282 l 301 167 l 878 167 l 865 104 l 779 104 l 754 -11 l 682 -11 q 668 -20 674 -14 q 637 -64 643 -44 q 675 -75 654 -75 l 741 -69 l 713 -205 l 646 -206 z "},"ę":{"ha":845,"x_min":-1,"x_max":1029,"o":"m 646 -206 q 502 -172 530 -206 q 484 -121 484 -150 q 530 -11 484 -73 l -1 -11 l 23 104 l 111 104 l 148 282 l 83 282 l 162 654 l 140 654 l 182 855 l 248 855 l 274 977 l 1029 977 l 1003 855 l 938 855 l 926 798 l 348 798 l 317 654 l 340 654 l 322 572 l 784 572 l 746 394 l 284 394 l 260 282 l 326 282 l 301 167 l 878 167 l 865 104 l 779 104 l 754 -11 l 682 -11 q 668 -20 674 -14 q 637 -64 643 -44 q 675 -75 654 -75 l 741 -69 l 713 -205 l 646 -206 z "},"Į":{"ha":362,"x_min":-48,"x_max":497,"o":"m 115 -206 q -31 -172 -2 -206 q -48 -121 -48 -150 q -18 -33 -48 -85 q 56 51 9 12 l 68 104 l 155 104 l 193 282 l 128 282 l 208 654 l 185 654 l 228 855 l 294 855 l 319 977 l 497 977 l 471 855 l 406 855 l 363 654 l 385 654 l 306 282 l 371 282 l 333 104 l 245 104 l 221 -11 l 149 -11 q 136 -20 142 -14 q 104 -64 111 -44 q 143 -75 121 -75 l 209 -69 l 180 -205 l 115 -206 z "},"į":{"ha":362,"x_min":-48,"x_max":497,"o":"m 115 -206 q -31 -172 -2 -206 q -48 -121 -48 -150 q -18 -33 -48 -85 q 56 51 9 12 l 68 104 l 155 104 l 193 282 l 128 282 l 208 654 l 185 654 l 228 855 l 294 855 l 319 977 l 497 977 l 471 855 l 406 855 l 363 654 l 385 654 l 306 282 l 371 282 l 333 104 l 245 104 l 221 -11 l 149 -11 q 136 -20 142 -14 q 104 -64 111 -44 q 143 -75 121 -75 l 209 -69 l 180 -205 l 115 -206 z "},"Ų":{"ha":845,"x_min":93,"x_max":1031,"o":"m 452 -206 q 307 -172 335 -206 q 289 -122 289 -150 q 328 -21 289 -80 q 113 104 181 -5 l 201 104 q 159 265 159 172 l 159 282 l 93 282 q 104 364 95 321 l 165 654 l 144 654 l 186 855 l 252 855 l 278 977 l 456 977 l 430 855 l 364 855 l 321 654 l 343 654 l 281 364 q 275 302 275 330 q 275 282 275 292 l 340 282 q 367 210 345 239 q 502 155 406 155 q 660 210 597 155 q 716 282 694 239 l 650 282 q 680 364 670 318 l 741 654 l 719 654 l 762 855 l 827 855 l 853 977 l 1031 977 l 1006 855 l 940 855 l 897 654 l 920 654 l 858 364 q 833 282 849 321 l 899 282 q 781 104 860 178 l 693 104 q 492 -9 606 20 q 472 -21 481 -12 q 442 -64 448 -44 q 481 -75 459 -75 l 547 -69 l 518 -205 l 452 -206 z "},"ų":{"ha":845,"x_min":93,"x_max":1031,"o":"m 452 -206 q 307 -172 335 -206 q 289 -122 289 -150 q 328 -21 289 -80 q 113 104 181 -5 l 201 104 q 159 265 159 172 l 159 282 l 93 282 q 104 364 95 321 l 165 654 l 144 654 l 186 855 l 252 855 l 278 977 l 456 977 l 430 855 l 364 855 l 321 654 l 343 654 l 281 364 q 275 302 275 330 q 275 282 275 292 l 340 282 q 367 210 345 239 q 502 155 406 155 q 660 210 597 155 q 716 282 694 239 l 650 282 q 680 364 670 318 l 741 654 l 719 654 l 762 855 l 827 855 l 853 977 l 1031 977 l 1006 855 l 940 855 l 897 654 l 920 654 l 858 364 q 833 282 849 321 l 899 282 q 781 104 860 178 l 693 104 q 492 -9 606 20 q 472 -21 481 -12 q 442 -64 448 -44 q 481 -75 459 -75 l 547 -69 l 518 -205 l 452 -206 z "},"È":{"ha":845,"x_min":-1,"x_max":1029,"o":"m 753 -11 l -1 -11 l 23 104 l 111 104 l 148 282 l 82 282 l 161 654 l 140 654 l 182 855 l 248 855 l 273 977 l 1029 977 l 1003 855 l 937 855 l 925 798 l 348 798 l 317 654 l 339 654 l 321 572 l 784 572 l 746 394 l 283 394 l 260 282 l 326 282 l 301 167 l 878 167 l 865 104 l 778 104 l 753 -11 m 760 987 l 582 987 l 454 1150 l 713 1150 l 760 987 z "},"è":{"ha":845,"x_min":-1,"x_max":1029,"o":"m 753 -11 l -1 -11 l 23 104 l 111 104 l 148 282 l 82 282 l 161 654 l 140 654 l 182 855 l 248 855 l 273 977 l 1029 977 l 1003 855 l 937 855 l 925 798 l 348 798 l 317 654 l 339 654 l 321 572 l 784 572 l 746 394 l 283 394 l 260 282 l 326 282 l 301 167 l 878 167 l 865 104 l 778 104 l 753 -11 m 760 987 l 582 987 l 454 1150 l 713 1150 l 760 987 z "},"É":{"ha":845,"x_min":-1,"x_max":1028,"o":"m 753 -11 l -1 -11 l 23 104 l 110 104 l 147 282 l 82 282 l 161 654 l 140 654 l 182 855 l 248 855 l 273 977 l 1028 977 l 1002 855 l 937 855 l 925 798 l 347 798 l 317 654 l 339 654 l 321 572 l 783 572 l 745 394 l 283 394 l 260 282 l 325 282 l 300 167 l 878 167 l 865 104 l 778 104 l 753 -11 m 724 987 l 547 987 l 663 1150 l 922 1150 l 724 987 z "},"é":{"ha":845,"x_min":-1,"x_max":1028,"o":"m 753 -11 l -1 -11 l 23 104 l 110 104 l 147 282 l 82 282 l 161 654 l 140 654 l 182 855 l 248 855 l 273 977 l 1028 977 l 1002 855 l 937 855 l 925 798 l 347 798 l 317 654 l 339 654 l 321 572 l 783 572 l 745 394 l 283 394 l 260 282 l 325 282 l 300 167 l 878 167 l 865 104 l 778 104 l 753 -11 m 724 987 l 547 987 l 663 1150 l 922 1150 l 724 987 z "},"Ê":{"ha":845,"x_min":-1,"x_max":1029,"o":"m 753 -11 l -1 -11 l 23 104 l 111 104 l 148 282 l 82 282 l 161 654 l 140 654 l 182 855 l 248 855 l 274 977 l 1029 977 l 1003 855 l 937 855 l 925 798 l 348 798 l 317 654 l 339 654 l 321 572 l 784 572 l 746 394 l 283 394 l 260 282 l 326 282 l 301 167 l 878 167 l 865 104 l 778 104 l 753 -11 m 902 987 l 699 987 l 663 1031 l 608 987 l 405 987 l 603 1150 l 773 1150 l 902 987 z "},"ê":{"ha":845,"x_min":-1,"x_max":1029,"o":"m 753 -11 l -1 -11 l 23 104 l 111 104 l 148 282 l 82 282 l 161 654 l 140 654 l 182 855 l 248 855 l 274 977 l 1029 977 l 1003 855 l 937 855 l 925 798 l 348 798 l 317 654 l 339 654 l 321 572 l 784 572 l 746 394 l 283 394 l 260 282 l 326 282 l 301 167 l 878 167 l 865 104 l 778 104 l 753 -11 m 902 987 l 699 987 l 663 1031 l 608 987 l 405 987 l 603 1150 l 773 1150 l 902 987 z "},"Ĕ":{"ha":845,"x_min":-3,"x_max":1028,"o":"m 753 -11 l -3 -11 l 22 104 l 109 104 l 147 282 l 82 282 l 161 654 l 139 654 l 182 855 l 248 855 l 273 977 l 1028 977 l 1002 855 l 937 855 l 925 798 l 347 798 l 317 654 l 339 654 l 321 572 l 783 572 l 745 394 l 283 394 l 260 282 l 325 282 l 300 167 l 878 167 l 865 104 l 777 104 l 753 -11 m 653 987 q 522 1025 572 987 q 477 1109 477 1061 q 484 1150 477 1120 l 604 1150 l 600 1133 q 612 1124 601 1130 q 680 1114 639 1114 q 762 1129 734 1114 l 769 1133 l 772 1150 l 892 1150 l 889 1133 q 801 1025 876 1070 q 653 987 734 987 z "},"ĕ":{"ha":845,"x_min":-3,"x_max":1028,"o":"m 753 -11 l -3 -11 l 22 104 l 109 104 l 147 282 l 82 282 l 161 654 l 139 654 l 182 855 l 248 855 l 273 977 l 1028 977 l 1002 855 l 937 855 l 925 798 l 347 798 l 317 654 l 339 654 l 321 572 l 783 572 l 745 394 l 283 394 l 260 282 l 325 282 l 300 167 l 878 167 l 865 104 l 777 104 l 753 -11 m 653 987 q 522 1025 572 987 q 477 1109 477 1061 q 484 1150 477 1120 l 604 1150 l 600 1133 q 612 1124 601 1130 q 680 1114 639 1114 q 762 1129 734 1114 l 769 1133 l 772 1150 l 892 1150 l 889 1133 q 801 1025 876 1070 q 653 987 734 987 z "},"Å":{"ha":845,"x_min":-56,"x_max":920,"o":"m 616 399 l 575 654 l 553 654 l 547 692 l 526 654 l 547 654 l 397 399 l 616 399 m 674 979 q 713 1012 707 979 q 715 1022 715 1017 q 688 1044 715 1044 q 648 1012 655 1044 q 647 1002 647 1006 q 674 979 647 979 m 850 -11 l 661 -11 l 642 104 l 730 104 l 711 220 l 358 220 l 290 104 l 202 104 l 135 -11 l -56 -11 l 12 104 l 99 104 l 204 282 l 138 282 l 357 654 l 335 654 l 453 855 l 519 855 l 538 888 q 513 965 513 922 q 519 1012 513 984 q 591 1125 534 1078 q 715 1173 648 1173 q 819 1125 781 1173 q 846 1047 846 1091 q 839 1000 846 1029 q 772 889 825 936 l 777 855 l 711 855 l 744 654 l 766 654 l 825 282 l 890 282 l 920 104 l 832 104 l 850 -11 z "},"å":{"ha":845,"x_min":-56,"x_max":920,"o":"m 616 399 l 575 654 l 553 654 l 547 692 l 526 654 l 547 654 l 397 399 l 616 399 m 674 979 q 713 1012 707 979 q 715 1022 715 1017 q 688 1044 715 1044 q 648 1012 655 1044 q 647 1002 647 1006 q 674 979 647 979 m 850 -11 l 661 -11 l 642 104 l 730 104 l 711 220 l 358 220 l 290 104 l 202 104 l 135 -11 l -56 -11 l 12 104 l 99 104 l 204 282 l 138 282 l 357 654 l 335 654 l 453 855 l 519 855 l 538 888 q 513 965 513 922 q 519 1012 513 984 q 591 1125 534 1078 q 715 1173 648 1173 q 819 1125 781 1173 q 846 1047 846 1091 q 839 1000 846 1029 q 772 889 825 936 l 777 855 l 711 855 l 744 654 l 766 654 l 825 282 l 890 282 l 920 104 l 832 104 l 850 -11 z "},"Ė":{"ha":845,"x_min":-2,"x_max":1029,"o":"m 753 -11 l -2 -11 l 22 104 l 110 104 l 148 282 l 82 282 l 161 654 l 140 654 l 182 855 l 248 855 l 274 977 l 1029 977 l 1003 855 l 937 855 l 925 798 l 348 798 l 317 654 l 339 654 l 321 572 l 784 572 l 746 394 l 283 394 l 260 282 l 326 282 l 301 167 l 878 167 l 865 104 l 777 104 l 753 -11 m 665 979 l 640 979 q 586 1004 605 979 q 572 1045 572 1022 q 579 1088 572 1054 q 616 1148 587 1123 q 680 1173 646 1173 l 706 1173 q 760 1147 740 1173 q 773 1107 773 1130 q 771 1088 773 1098 l 766 1063 q 729 1004 758 1029 q 665 979 699 979 z "},"ė":{"ha":845,"x_min":-2,"x_max":1029,"o":"m 753 -11 l -2 -11 l 22 104 l 110 104 l 148 282 l 82 282 l 161 654 l 140 654 l 182 855 l 248 855 l 274 977 l 1029 977 l 1003 855 l 937 855 l 925 798 l 348 798 l 317 654 l 339 654 l 321 572 l 784 572 l 746 394 l 283 394 l 260 282 l 326 282 l 301 167 l 878 167 l 865 104 l 777 104 l 753 -11 m 665 979 l 640 979 q 586 1004 605 979 q 572 1045 572 1022 q 579 1088 572 1054 q 616 1148 587 1123 q 680 1173 646 1173 l 706 1173 q 760 1147 740 1173 q 773 1107 773 1130 q 771 1088 773 1098 l 766 1063 q 729 1004 758 1029 q 665 979 699 979 z "},"Ä":{"ha":845,"x_min":-55,"x_max":920,"o":"m 616 399 l 575 654 l 553 654 l 547 692 l 525 654 l 547 654 l 397 399 l 616 399 m 851 -11 l 661 -11 l 643 104 l 730 104 l 711 220 l 358 220 l 290 104 l 202 104 l 135 -11 l -55 -11 l 12 104 l 100 104 l 203 282 l 138 282 l 357 654 l 335 654 l 453 855 l 518 855 l 590 977 l 757 977 l 777 855 l 711 855 l 743 654 l 765 654 l 825 282 l 890 282 l 920 104 l 833 104 l 851 -11 m 578 979 l 551 979 q 498 1004 517 979 q 485 1044 485 1022 q 492 1088 485 1054 q 529 1148 499 1123 q 593 1173 559 1173 l 618 1173 q 672 1147 653 1173 q 686 1106 686 1129 q 684 1088 686 1097 l 679 1063 q 641 1004 671 1029 q 578 979 611 979 m 795 979 l 769 979 q 715 1004 734 979 q 702 1044 702 1022 q 709 1088 702 1054 q 746 1148 716 1123 q 810 1173 777 1173 l 836 1173 q 889 1147 870 1173 q 903 1106 903 1129 q 901 1088 903 1097 l 896 1063 q 859 1004 888 1029 q 795 979 829 979 z "},"ä":{"ha":845,"x_min":-55,"x_max":920,"o":"m 616 399 l 575 654 l 553 654 l 547 692 l 525 654 l 547 654 l 397 399 l 616 399 m 851 -11 l 661 -11 l 643 104 l 730 104 l 711 220 l 358 220 l 290 104 l 202 104 l 135 -11 l -55 -11 l 12 104 l 100 104 l 203 282 l 138 282 l 357 654 l 335 654 l 453 855 l 518 855 l 590 977 l 757 977 l 777 855 l 711 855 l 743 654 l 765 654 l 825 282 l 890 282 l 920 104 l 833 104 l 851 -11 m 578 979 l 551 979 q 498 1004 517 979 q 485 1044 485 1022 q 492 1088 485 1054 q 529 1148 499 1123 q 593 1173 559 1173 l 618 1173 q 672 1147 653 1173 q 686 1106 686 1129 q 684 1088 686 1097 l 679 1063 q 641 1004 671 1029 q 578 979 611 979 m 795 979 l 769 979 q 715 1004 734 979 q 702 1044 702 1022 q 709 1088 702 1054 q 746 1148 716 1123 q 810 1173 777 1173 l 836 1173 q 889 1147 870 1173 q 903 1106 903 1129 q 901 1088 903 1097 l 896 1063 q 859 1004 888 1029 q 795 979 829 979 z "},"Ë":{"ha":845,"x_min":-2,"x_max":1029,"o":"m 753 -11 l -2 -11 l 22 104 l 110 104 l 148 282 l 82 282 l 161 654 l 140 654 l 182 855 l 248 855 l 274 977 l 1029 977 l 1003 855 l 937 855 l 925 798 l 348 798 l 317 654 l 339 654 l 321 572 l 784 572 l 746 394 l 283 394 l 260 282 l 326 282 l 301 167 l 878 167 l 865 104 l 777 104 l 753 -11 m 557 979 l 530 979 q 477 1004 496 979 q 463 1045 463 1022 q 471 1088 463 1054 q 508 1148 478 1123 q 571 1173 537 1173 l 597 1173 q 651 1147 631 1173 q 665 1107 665 1130 q 663 1088 665 1098 l 657 1063 q 620 1004 650 1029 q 557 979 590 979 m 774 979 l 748 979 q 694 1004 713 979 q 680 1045 680 1022 q 688 1088 680 1054 q 725 1148 695 1123 q 788 1173 755 1173 l 814 1173 q 868 1147 848 1173 q 882 1107 882 1130 q 880 1088 882 1098 l 874 1063 q 837 1004 867 1029 q 774 979 808 979 z "},"ë":{"ha":845,"x_min":-2,"x_max":1029,"o":"m 753 -11 l -2 -11 l 22 104 l 110 104 l 148 282 l 82 282 l 161 654 l 140 654 l 182 855 l 248 855 l 274 977 l 1029 977 l 1003 855 l 937 855 l 925 798 l 348 798 l 317 654 l 339 654 l 321 572 l 784 572 l 746 394 l 283 394 l 260 282 l 326 282 l 301 167 l 878 167 l 865 104 l 777 104 l 753 -11 m 557 979 l 530 979 q 477 1004 496 979 q 463 1045 463 1022 q 471 1088 463 1054 q 508 1148 478 1123 q 571 1173 537 1173 l 597 1173 q 651 1147 631 1173 q 665 1107 665 1130 q 663 1088 665 1098 l 657 1063 q 620 1004 650 1029 q 557 979 590 979 m 774 979 l 748 979 q 694 1004 713 979 q 680 1045 680 1022 q 688 1088 680 1054 q 725 1148 695 1123 q 788 1173 755 1173 l 814 1173 q 868 1147 848 1173 q 882 1107 882 1130 q 880 1088 882 1098 l 874 1063 q 837 1004 867 1029 q 774 979 808 979 z "},"Ö":{"ha":966,"x_min":113,"x_max":1030,"o":"m 568 155 q 708 198 640 155 q 804 282 761 231 l 739 282 q 839 484 814 370 q 848 568 848 528 q 836 654 848 625 l 814 654 q 742 768 792 726 q 619 811 692 811 q 477 768 546 811 q 357 654 409 726 l 379 654 q 304 484 323 576 q 294 398 294 439 q 317 282 294 336 l 382 282 q 444 198 404 231 q 568 155 494 155 m 442 -22 q 175 104 273 -22 l 262 104 q 184 282 202 180 l 119 282 q 113 360 113 320 q 126 484 113 420 q 188 654 145 574 l 165 654 q 326 855 227 770 l 392 855 q 628 979 505 953 l 599 979 q 546 1004 565 979 q 532 1045 532 1022 q 539 1088 532 1054 q 576 1148 547 1123 q 640 1173 606 1173 l 666 1173 q 720 1148 701 1173 q 733 1107 733 1130 q 726 1063 733 1098 q 688 1004 718 1029 q 654 984 672 990 q 722 989 688 989 q 789 984 757 989 q 763 1004 773 990 q 749 1045 749 1022 q 756 1088 749 1054 q 794 1148 764 1123 q 857 1173 824 1173 l 884 1173 q 937 1148 918 1173 q 950 1107 950 1130 q 943 1063 950 1098 q 906 1004 935 1029 q 842 979 876 979 l 812 979 q 996 855 924 953 l 931 855 q 1006 654 994 770 l 1027 654 q 1030 602 1030 629 q 1017 484 1030 545 q 938 282 994 376 l 1003 282 q 851 104 943 180 l 764 104 q 442 -22 610 -22 z "},"ö":{"ha":966,"x_min":113,"x_max":1030,"o":"m 568 155 q 708 198 640 155 q 804 282 761 231 l 739 282 q 839 484 814 370 q 848 568 848 528 q 836 654 848 625 l 814 654 q 742 768 792 726 q 619 811 692 811 q 477 768 546 811 q 357 654 409 726 l 379 654 q 304 484 323 576 q 294 398 294 439 q 317 282 294 336 l 382 282 q 444 198 404 231 q 568 155 494 155 m 442 -22 q 175 104 273 -22 l 262 104 q 184 282 202 180 l 119 282 q 113 360 113 320 q 126 484 113 420 q 188 654 145 574 l 165 654 q 326 855 227 770 l 392 855 q 628 979 505 953 l 599 979 q 546 1004 565 979 q 532 1045 532 1022 q 539 1088 532 1054 q 576 1148 547 1123 q 640 1173 606 1173 l 666 1173 q 720 1148 701 1173 q 733 1107 733 1130 q 726 1063 733 1098 q 688 1004 718 1029 q 654 984 672 990 q 722 989 688 989 q 789 984 757 989 q 763 1004 773 990 q 749 1045 749 1022 q 756 1088 749 1054 q 794 1148 764 1123 q 857 1173 824 1173 l 884 1173 q 937 1148 918 1173 q 950 1107 950 1130 q 943 1063 950 1098 q 906 1004 935 1029 q 842 979 876 979 l 812 979 q 996 855 924 953 l 931 855 q 1006 654 994 770 l 1027 654 q 1030 602 1030 629 q 1017 484 1030 545 q 938 282 994 376 l 1003 282 q 851 104 943 180 l 764 104 q 442 -22 610 -22 z "},"Ü":{"ha":845,"x_min":94,"x_max":1031,"o":"m 779 979 l 753 979 q 699 1004 718 979 q 685 1045 685 1022 q 692 1088 685 1054 q 730 1148 700 1123 q 793 1173 760 1173 l 820 1173 q 873 1148 854 1173 q 886 1107 886 1130 q 884 1088 886 1098 l 879 1063 q 842 1004 871 1029 q 779 979 812 979 m 376 -22 q 190 26 265 -22 q 114 104 142 58 l 201 104 q 158 264 158 172 l 159 283 l 94 283 q 104 365 95 322 l 165 655 l 144 655 l 186 856 l 252 856 l 277 978 l 455 978 l 429 856 l 363 856 l 321 655 l 343 655 l 281 365 q 275 302 275 331 q 275 283 275 292 l 341 283 q 367 210 344 240 q 502 156 406 156 q 660 210 597 156 q 717 283 694 240 l 651 283 q 679 365 669 319 l 741 655 l 719 655 l 762 856 l 827 856 l 853 978 l 1031 978 l 1006 856 l 940 856 l 897 655 l 919 655 l 857 365 q 833 283 848 322 l 899 283 q 781 104 859 179 l 693 104 q 583 26 644 58 q 376 -22 488 -22 m 562 979 l 535 979 q 482 1004 501 979 q 468 1045 468 1022 q 475 1088 468 1054 q 513 1148 483 1123 q 576 1173 543 1173 l 602 1173 q 656 1148 637 1173 q 669 1107 669 1130 q 667 1088 669 1098 l 662 1063 q 625 1004 654 1029 q 562 979 595 979 z "},"ü":{"ha":845,"x_min":94,"x_max":1031,"o":"m 779 979 l 753 979 q 699 1004 718 979 q 685 1045 685 1022 q 692 1088 685 1054 q 730 1148 700 1123 q 793 1173 760 1173 l 820 1173 q 873 1148 854 1173 q 886 1107 886 1130 q 884 1088 886 1098 l 879 1063 q 842 1004 871 1029 q 779 979 812 979 m 376 -22 q 190 26 265 -22 q 114 104 142 58 l 201 104 q 158 264 158 172 l 159 283 l 94 283 q 104 365 95 322 l 165 655 l 144 655 l 186 856 l 252 856 l 277 978 l 455 978 l 429 856 l 363 856 l 321 655 l 343 655 l 281 365 q 275 302 275 331 q 275 283 275 292 l 341 283 q 367 210 344 240 q 502 156 406 156 q 660 210 597 156 q 717 283 694 240 l 651 283 q 679 365 669 319 l 741 655 l 719 655 l 762 856 l 827 856 l 853 978 l 1031 978 l 1006 856 l 940 856 l 897 655 l 919 655 l 857 365 q 833 283 848 322 l 899 283 q 781 104 859 179 l 693 104 q 583 26 644 58 q 376 -22 488 -22 m 562 979 l 535 979 q 482 1004 501 979 q 468 1045 468 1022 q 475 1088 468 1054 q 513 1148 483 1123 q 576 1173 543 1173 l 602 1173 q 656 1148 637 1173 q 669 1107 669 1130 q 667 1088 669 1098 l 662 1063 q 625 1004 654 1029 q 562 979 595 979 z "},"Õ":{"ha":966,"x_min":113,"x_max":1030,"o":"m 568 155 q 708 198 640 155 q 804 282 761 231 l 739 282 q 839 484 814 370 q 848 568 848 528 q 836 654 848 625 l 814 654 q 742 768 792 726 q 619 811 692 811 q 477 768 546 811 q 357 654 409 726 l 379 654 q 304 484 323 576 q 294 398 294 439 q 317 282 294 336 l 382 282 q 444 198 404 231 q 568 155 494 155 m 669 986 q 722 989 695 989 q 742 989 732 989 l 675 1018 l 669 986 m 442 -22 q 175 104 273 -22 l 262 104 q 184 282 202 180 l 119 282 q 113 360 113 320 q 126 484 113 420 q 188 654 145 574 l 165 654 q 326 855 227 770 l 392 855 q 634 981 508 955 l 519 981 l 526 1012 q 552 1089 536 1059 q 684 1170 604 1170 q 788 1141 728 1170 q 810 1131 802 1134 l 819 1168 l 968 1168 l 961 1136 q 934 1059 951 1089 q 814 979 886 984 q 996 855 925 952 l 931 855 q 1006 654 994 770 l 1027 654 q 1030 602 1030 629 q 1017 484 1030 545 q 938 282 994 376 l 1003 282 q 851 104 943 180 l 764 104 q 442 -22 610 -22 z "},"õ":{"ha":966,"x_min":113,"x_max":1030,"o":"m 568 155 q 708 198 640 155 q 804 282 761 231 l 739 282 q 839 484 814 370 q 848 568 848 528 q 836 654 848 625 l 814 654 q 742 768 792 726 q 619 811 692 811 q 477 768 546 811 q 357 654 409 726 l 379 654 q 304 484 323 576 q 294 398 294 439 q 317 282 294 336 l 382 282 q 444 198 404 231 q 568 155 494 155 m 669 986 q 722 989 695 989 q 742 989 732 989 l 675 1018 l 669 986 m 442 -22 q 175 104 273 -22 l 262 104 q 184 282 202 180 l 119 282 q 113 360 113 320 q 126 484 113 420 q 188 654 145 574 l 165 654 q 326 855 227 770 l 392 855 q 634 981 508 955 l 519 981 l 526 1012 q 552 1089 536 1059 q 684 1170 604 1170 q 788 1141 728 1170 q 810 1131 802 1134 l 819 1168 l 968 1168 l 961 1136 q 934 1059 951 1089 q 814 979 886 984 q 996 855 925 952 l 931 855 q 1006 654 994 770 l 1027 654 q 1030 602 1030 629 q 1017 484 1030 545 q 938 282 994 376 l 1003 282 q 851 104 943 180 l 764 104 q 442 -22 610 -22 z "},"Ñ":{"ha":845,"x_min":0,"x_max":1030,"o":"m 755 -11 l 581 -11 l 533 104 l 621 104 l 547 282 l 481 282 l 336 635 l 261 282 l 327 282 l 289 104 l 201 104 l 178 -11 l 0 -11 l 24 104 l 111 104 l 149 282 l 83 282 l 163 654 l 141 654 l 184 855 l 249 855 l 275 977 l 449 977 l 499 855 l 433 855 l 516 654 l 538 654 l 671 331 l 740 654 l 718 654 l 761 855 l 827 855 l 852 977 l 1030 977 l 1004 855 l 939 855 l 896 654 l 918 654 l 838 282 l 904 282 l 866 104 l 779 104 l 755 -11 m 733 979 q 675 989 703 979 q 629 1008 652 997 l 606 1019 l 598 981 l 450 981 l 456 1013 q 483 1090 467 1059 q 614 1171 534 1171 q 718 1141 659 1171 q 741 1131 732 1135 l 749 1168 l 899 1168 l 892 1137 q 865 1059 882 1090 q 733 979 814 979 z "},"ñ":{"ha":845,"x_min":0,"x_max":1030,"o":"m 755 -11 l 581 -11 l 533 104 l 621 104 l 547 282 l 481 282 l 336 635 l 261 282 l 327 282 l 289 104 l 201 104 l 178 -11 l 0 -11 l 24 104 l 111 104 l 149 282 l 83 282 l 163 654 l 141 654 l 184 855 l 249 855 l 275 977 l 449 977 l 499 855 l 433 855 l 516 654 l 538 654 l 671 331 l 740 654 l 718 654 l 761 855 l 827 855 l 852 977 l 1030 977 l 1004 855 l 939 855 l 896 654 l 918 654 l 838 282 l 904 282 l 866 104 l 779 104 l 755 -11 m 733 979 q 675 989 703 979 q 629 1008 652 997 l 606 1019 l 598 981 l 450 981 l 456 1013 q 483 1090 467 1059 q 614 1171 534 1171 q 718 1141 659 1171 q 741 1131 732 1135 l 749 1168 l 899 1168 l 892 1137 q 865 1059 882 1090 q 733 979 814 979 z "},"Ć":{"ha":845,"x_min":89,"x_max":972,"o":"m 418 -25 q 149 104 246 -22 l 237 104 q 160 282 178 179 l 95 282 q 89 361 89 321 q 165 654 89 511 l 142 654 q 303 855 203 770 l 369 855 q 663 987 506 972 l 585 987 l 701 1151 l 960 1151 l 762 987 l 736 987 q 972 855 884 972 l 906 855 l 930 822 l 772 703 l 756 726 q 596 811 697 810 q 454 768 523 810 q 335 654 386 726 l 357 654 q 280 482 300 574 q 271 397 271 438 q 293 282 271 335 l 359 282 q 420 197 380 230 q 545 153 471 155 q 741 239 646 154 l 767 262 l 876 144 l 829 104 l 741 104 q 418 -25 589 -22 z "},"ć":{"ha":845,"x_min":89,"x_max":972,"o":"m 418 -25 q 149 104 246 -22 l 237 104 q 160 282 178 179 l 95 282 q 89 361 89 321 q 165 654 89 511 l 142 654 q 303 855 203 770 l 369 855 q 663 987 506 972 l 585 987 l 701 1151 l 960 1151 l 762 987 l 736 987 q 972 855 884 972 l 906 855 l 930 822 l 772 703 l 756 726 q 596 811 697 810 q 454 768 523 810 q 335 654 386 726 l 357 654 q 280 482 300 574 q 271 397 271 438 q 293 282 271 335 l 359 282 q 420 197 380 230 q 545 153 471 155 q 741 239 646 154 l 767 262 l 876 144 l 829 104 l 741 104 q 418 -25 589 -22 z "}}}
